<?xml version="1.0" encoding="utf-8"?>
<!-- Generator: Adobe Illustrator 27.5.0, SVG Export Plug-In . SVG Version: 6.00 Build 0)  -->
<svg version="1.1" xmlns="http://www.w3.org/2000/svg" xmlns:xlink="http://www.w3.org/1999/xlink" x="0px" y="0px"
	 viewBox="0 0 500 500" style="enable-background:new 0 0 500 500;" xml:space="preserve">
<g id="BACKGROUND">
	<rect x="0" style="fill:#E3ECFB;" width="500" height="500"/>
</g>
<g id="OBJECTS">
	<g>
		<g>
			<path style="fill:#FFFFFF;" d="M473.436,295.596c0,0-22.895-0.081-18.496,25.158c0,0-106.374-9.437-106.374,127.213H500V255.426
				C500,255.426,473.436,260.106,473.436,295.596z"/>
			<path style="fill:#FFFFFF;" d="M167.634,388.643c-8.217-19.548-28.293-9.233-28.293-9.233
				c-13.021-33.377-45.699-20.486-45.699-20.486c-5.359-45.438-48.582-38.17-48.582-38.17c4.4-25.239-18.496-25.158-18.496-25.158
				c0-35.489-26.564-40.17-26.564-40.17v192.541h151.434l74.97-0.491v-38.055C217.126,376.182,167.634,388.643,167.634,388.643z"/>
		</g>
		<g>
			<g>
				<path style="fill:#FFFFFF;" d="M224.393,136.586c0,0,7.244-16.545-8.221-16.545c-17.19,0-28.586,14.322-28.586,14.322
					c-10.04-4.543-14.908,4.775-14.908,4.775c-15.821-6.461-25.992,5.262-25.992,5.262h109.963
					C249.651,128.291,224.393,136.586,224.393,136.586z"/>
			</g>
			<g>
				<path style="fill:#FFFFFF;" d="M52.204,252.156c0,0-6.939-15.85,7.875-15.85c16.467,0,27.385,13.72,27.385,13.72
					c9.618-4.352,14.281,4.574,14.281,4.574c15.156-6.19,24.899,5.04,24.899,5.04H21.304
					C28.007,244.21,52.204,252.156,52.204,252.156z"/>
			</g>
			<g>
				<path style="fill:#FFFFFF;" d="M118.977,39.507c0,0,8.903-20.337-10.105-20.337c-21.129,0-35.137,17.604-35.137,17.604
					c-12.341-5.584-18.324,5.869-18.324,5.869c-19.446-7.942-31.948,6.467-31.948,6.467h135.161
					C150.023,29.311,118.977,39.507,118.977,39.507z"/>
			</g>
			<g>
				<path style="fill:#FFFFFF;" d="M399.538,42.203c0,0-6.404-14.628,7.268-14.628c15.197,0,25.273,12.662,25.273,12.662
					c8.876-4.016,13.18,4.221,13.18,4.221c13.987-5.712,22.979,4.652,22.979,4.652h-97.218
					C377.207,34.869,399.538,42.203,399.538,42.203z"/>
			</g>
			<g>
				<path style="fill:#FFFFFF;" d="M412.867,241.022c0,0-6.404-14.628,7.268-14.628c15.197,0,25.273,12.662,25.273,12.662
					c8.876-4.016,13.18,4.221,13.18,4.221c13.987-5.712,22.979,4.652,22.979,4.652H384.35
					C390.536,233.689,412.867,241.022,412.867,241.022z"/>
			</g>
		</g>
		<g>
			<g>
				<path style="fill:none;stroke:#77B633;stroke-miterlimit:10;" d="M257.459,228.072c0,0-30.3-24.359-39.129-71.182"/>
				<path style="fill:#77B633;" d="M221.465,169.624c0,0-1.825-27.082-8.46-30.52C206.083,135.517,221.465,169.624,221.465,169.624z
					"/>
				<path style="fill:#77B633;" d="M224.457,178.975c0,0,5.96-26.481,0.578-31.666C219.42,141.9,224.457,178.975,224.457,178.975z"
					/>
				<path style="fill:#77B633;" d="M228.819,188.92c0,0,9.133-25.561,4.421-31.361C228.324,151.507,228.819,188.92,228.819,188.92z"
					/>
				<path style="fill:#77B633;" d="M233.239,198.048c0,0,10.5-25.03,6.108-31.076C234.765,160.663,233.239,198.048,233.239,198.048z
					"/>
				<path style="fill:#77B633;" d="M224.215,178.242c0,0-10.4-25.072-17.786-26.205
					C198.723,150.855,224.215,178.242,224.215,178.242z"/>
				<path style="fill:#77B633;" d="M228.775,188.846c0,0-14.469-22.965-21.941-22.84
					C199.039,166.137,228.775,188.846,228.775,188.846z"/>
				<path style="fill:#77B633;" d="M233.388,197.959c0,0-17.604-20.66-24.981-19.468
					C200.711,179.736,233.388,197.959,233.388,197.959z"/>
			</g>
			<g>
				<path style="fill:none;stroke:#77B633;stroke-miterlimit:10;" d="M384.817,220.68c0,0,26.128-28.788,27.544-76.415"/>
				<path style="fill:#77B633;" d="M411.252,157.332c0,0-2.423-27.035,3.594-31.466
					C421.124,121.242,411.252,157.332,411.252,157.332z"/>
				<path style="fill:#77B633;" d="M409.755,167.036c0,0-10.018-25.227-5.511-31.188
					C408.946,129.629,409.755,167.036,409.755,167.036z"/>
				<path style="fill:#77B633;" d="M406.998,177.539c0,0-13.009-23.823-9.26-30.287C401.65,140.507,406.998,177.539,406.998,177.539
					z"/>
				<path style="fill:#77B633;" d="M404.057,187.245c0,0-14.277-23.085-10.882-29.743
					C396.716,150.556,404.057,187.245,404.057,187.245z"/>
				<path style="fill:#77B633;" d="M409.879,166.274c0,0,6.361-26.387,13.48-28.659
					C430.787,135.245,409.879,166.274,409.879,166.274z"/>
				<path style="fill:#77B633;" d="M407.029,177.459c0,0,10.709-24.941,18.109-25.983
					C432.859,150.389,407.029,177.459,407.029,177.459z"/>
				<path style="fill:#77B633;" d="M403.895,187.181c0,0,14.165-23.154,21.638-23.127
					C433.329,164.082,403.895,187.181,403.895,187.181z"/>
			</g>
		</g>
		<g>
			<g>
				<g>
					<g>
						<g>
							<path style="fill:#DD6512;" d="M348.398,84.62l4.244-2.231l-19.744-37.563l-4.244,2.231
								c-10.373,5.452-14.362,18.281-8.909,28.654C325.197,86.083,338.026,90.072,348.398,84.62z"/>
						</g>
						<g>
							<defs>
								<path id="SVGID_1_" d="M348.398,84.62l4.244-2.231l-19.744-37.563l-4.244,2.231c-10.373,5.452-14.362,18.281-8.909,28.654
									C325.197,86.083,338.026,90.072,348.398,84.62z"/>
							</defs>
							<clipPath id="SVGID_00000004504438293932607420000014731824586460993461_">
								<use xlink:href="#SVGID_1_"  style="overflow:visible;"/>
							</clipPath>
							<g style="clip-path:url(#SVGID_00000004504438293932607420000014731824586460993461_);">
								
									<line style="fill:none;stroke:#FEAC01;stroke-width:0.75;stroke-miterlimit:10;" x1="351.984" y1="81.136" x2="320.755" y2="97.551"/>
								
									<line style="fill:none;stroke:#FEAC01;stroke-width:0.75;stroke-miterlimit:10;" x1="351.009" y1="79.282" x2="319.78" y2="95.697"/>
								
									<line style="fill:none;stroke:#FEAC01;stroke-width:0.75;stroke-miterlimit:10;" x1="350.035" y1="77.428" x2="318.806" y2="93.843"/>
								
									<line style="fill:none;stroke:#FEAC01;stroke-width:0.75;stroke-miterlimit:10;" x1="349.06" y1="75.574" x2="317.831" y2="91.989"/>
								
									<line style="fill:none;stroke:#FEAC01;stroke-width:0.75;stroke-miterlimit:10;" x1="348.086" y1="73.72" x2="316.856" y2="90.135"/>
								
									<line style="fill:none;stroke:#FEAC01;stroke-width:0.75;stroke-miterlimit:10;" x1="347.111" y1="71.866" x2="315.882" y2="88.281"/>
								
									<line style="fill:none;stroke:#FEAC01;stroke-width:0.75;stroke-miterlimit:10;" x1="346.137" y1="70.012" x2="314.907" y2="86.427"/>
								
									<line style="fill:none;stroke:#FEAC01;stroke-width:0.75;stroke-miterlimit:10;" x1="345.162" y1="68.158" x2="313.933" y2="84.573"/>
								
									<line style="fill:none;stroke:#FEAC01;stroke-width:0.75;stroke-miterlimit:10;" x1="344.188" y1="66.304" x2="312.958" y2="82.719"/>
								
									<line style="fill:none;stroke:#FEAC01;stroke-width:0.75;stroke-miterlimit:10;" x1="343.213" y1="64.45" x2="311.984" y2="80.865"/>
								
									<line style="fill:none;stroke:#FEAC01;stroke-width:0.75;stroke-miterlimit:10;" x1="342.239" y1="62.596" x2="311.009" y2="79.011"/>
								
									<line style="fill:none;stroke:#FEAC01;stroke-width:0.75;stroke-miterlimit:10;" x1="341.264" y1="60.742" x2="310.035" y2="77.157"/>
								
									<line style="fill:none;stroke:#FEAC01;stroke-width:0.75;stroke-miterlimit:10;" x1="340.29" y1="58.888" x2="309.06" y2="75.303"/>
								
									<line style="fill:none;stroke:#FEAC01;stroke-width:0.75;stroke-miterlimit:10;" x1="339.315" y1="57.034" x2="308.086" y2="73.449"/>
								
									<line style="fill:none;stroke:#FEAC01;stroke-width:0.75;stroke-miterlimit:10;" x1="338.341" y1="55.18" x2="307.111" y2="71.595"/>
								
									<line style="fill:none;stroke:#FEAC01;stroke-width:0.75;stroke-miterlimit:10;" x1="337.366" y1="53.326" x2="306.137" y2="69.741"/>
								
									<line style="fill:none;stroke:#FEAC01;stroke-width:0.75;stroke-miterlimit:10;" x1="336.392" y1="51.472" x2="305.162" y2="67.887"/>
								
									<line style="fill:none;stroke:#FEAC01;stroke-width:0.75;stroke-miterlimit:10;" x1="335.417" y1="49.618" x2="304.188" y2="66.033"/>
								
									<line style="fill:none;stroke:#FEAC01;stroke-width:0.75;stroke-miterlimit:10;" x1="334.443" y1="47.764" x2="303.213" y2="64.179"/>
								
									<line style="fill:none;stroke:#FEAC01;stroke-width:0.75;stroke-miterlimit:10;" x1="333.468" y1="45.91" x2="302.239" y2="62.325"/>
							</g>
						</g>
						<g>
							<circle style="fill:#FEC701;" cx="342.77" cy="63.607" r="21.218"/>
						</g>
						<g>
							<circle style="fill:#DD6512;" cx="342.77" cy="63.607" r="18.238"/>
						</g>
						<g>
							<circle style="fill:#FEA901;" cx="342.77" cy="63.607" r="16.423"/>
						</g>
					</g>
				</g>
				<path style="fill:#DD6512;" d="M340.44,55.392l-1.471,0.773l-4.222,2.219l-2.127,1.118l1.865,3.548l2.127-1.118l4.046,7.698
					l-2.127,1.118l1.865,3.548l2.127-1.118l4.222-2.219l1.471-0.773c4.598-2.417,5.601-6.091,3.009-11.022
					C348.633,54.232,345.038,52.975,340.44,55.392z M347.246,62.078c1.123,2.136,0.799,3.669-0.971,4.6l-1.395,0.733l-4.046-7.698
					l1.395-0.733c1.77-0.93,3.217-0.328,4.34,1.808L347.246,62.078z"/>
			</g>
			<g>
				<g>
					<g>
						<g>
							<path style="fill:#DD6512;" d="M354.565,124.807l-5.998-2.31l20.447-53.087l5.998,2.31
								c14.659,5.646,21.966,22.108,16.32,36.767C385.685,123.147,369.224,130.453,354.565,124.807z"/>
						</g>
						<g>
							<defs>
								<path id="SVGID_00000170972354103283922590000001718416768119402394_" d="M354.565,124.807l-5.998-2.31l20.447-53.087
									l5.998,2.31c14.659,5.646,21.966,22.108,16.32,36.767C385.685,123.147,369.224,130.453,354.565,124.807z"/>
							</defs>
							<clipPath id="SVGID_00000106839102398655821440000010606430996480336792_">
								<use xlink:href="#SVGID_00000170972354103283922590000001718416768119402394_"  style="overflow:visible;"/>
							</clipPath>
							<g style="clip-path:url(#SVGID_00000106839102398655821440000010606430996480336792_);">
								
									<line style="fill:none;stroke:#FEAC01;stroke-width:0.75;stroke-miterlimit:10;" x1="349.248" y1="120.726" x2="393.384" y2="137.726"/>
								
									<line style="fill:none;stroke:#FEAC01;stroke-width:0.75;stroke-miterlimit:10;" x1="350.258" y1="118.106" x2="394.393" y2="135.106"/>
								
									<line style="fill:none;stroke:#FEAC01;stroke-width:0.75;stroke-miterlimit:10;" x1="351.267" y1="115.486" x2="395.403" y2="132.486"/>
								
									<line style="fill:none;stroke:#FEAC01;stroke-width:0.75;stroke-miterlimit:10;" x1="352.276" y1="112.866" x2="396.412" y2="129.865"/>
								
									<line style="fill:none;stroke:#FEAC01;stroke-width:0.75;stroke-miterlimit:10;" x1="353.285" y1="110.245" x2="397.421" y2="127.245"/>
								
									<line style="fill:none;stroke:#FEAC01;stroke-width:0.75;stroke-miterlimit:10;" x1="354.294" y1="107.625" x2="398.43" y2="124.625"/>
								
									<line style="fill:none;stroke:#FEAC01;stroke-width:0.75;stroke-miterlimit:10;" x1="355.304" y1="105.005" x2="399.439" y2="122.005"/>
								
									<line style="fill:none;stroke:#FEAC01;stroke-width:0.75;stroke-miterlimit:10;" x1="356.313" y1="102.385" x2="400.449" y2="119.385"/>
								
									<line style="fill:none;stroke:#FEAC01;stroke-width:0.75;stroke-miterlimit:10;" x1="357.322" y1="99.765" x2="401.458" y2="116.764"/>
								
									<line style="fill:none;stroke:#FEAC01;stroke-width:0.75;stroke-miterlimit:10;" x1="358.331" y1="97.144" x2="402.467" y2="114.144"/>
								
									<line style="fill:none;stroke:#FEAC01;stroke-width:0.75;stroke-miterlimit:10;" x1="359.341" y1="94.524" x2="403.476" y2="111.524"/>
								
									<line style="fill:none;stroke:#FEAC01;stroke-width:0.75;stroke-miterlimit:10;" x1="360.35" y1="91.904" x2="404.486" y2="108.904"/>
								
									<line style="fill:none;stroke:#FEAC01;stroke-width:0.75;stroke-miterlimit:10;" x1="361.359" y1="89.284" x2="405.495" y2="106.284"/>
								
									<line style="fill:none;stroke:#FEAC01;stroke-width:0.75;stroke-miterlimit:10;" x1="362.368" y1="86.664" x2="406.504" y2="103.663"/>
								
									<line style="fill:none;stroke:#FEAC01;stroke-width:0.75;stroke-miterlimit:10;" x1="363.377" y1="84.043" x2="407.513" y2="101.043"/>
								
									<line style="fill:none;stroke:#FEAC01;stroke-width:0.75;stroke-miterlimit:10;" x1="364.387" y1="81.423" x2="408.522" y2="98.423"/>
								
									<line style="fill:none;stroke:#FEAC01;stroke-width:0.75;stroke-miterlimit:10;" x1="365.396" y1="78.803" x2="409.532" y2="95.803"/>
								
									<line style="fill:none;stroke:#FEAC01;stroke-width:0.75;stroke-miterlimit:10;" x1="366.405" y1="76.183" x2="410.541" y2="93.183"/>
								
									<line style="fill:none;stroke:#FEAC01;stroke-width:0.75;stroke-miterlimit:10;" x1="367.414" y1="73.563" x2="411.55" y2="90.562"/>
								
									<line style="fill:none;stroke:#FEAC01;stroke-width:0.75;stroke-miterlimit:10;" x1="368.424" y1="70.942" x2="412.559" y2="87.942"/>
							</g>
						</g>
						<g>
							<circle style="fill:#FEC701;" cx="358.79" cy="95.953" r="28.444"/>
						</g>
						<g>
							<circle style="fill:#DD6512;" cx="358.79" cy="95.953" r="24.449"/>
						</g>
						<g>
							<circle style="fill:#FEA901;" cx="358.79" cy="95.953" r="22.017"/>
						</g>
					</g>
				</g>
				<path style="fill:#DD6512;" d="M363.469,85.751l-2.079-0.801l-5.967-2.298l-3.006-1.158l-1.931,5.014l3.006,1.158l-4.19,10.879
					l-3.006-1.158l-1.931,5.014l3.006,1.158l5.967,2.298l2.079,0.801c6.498,2.503,11.09,0.27,13.774-6.699
					C371.875,92.99,369.967,88.254,363.469,85.751z M362.737,98.52c-1.163,3.019-2.995,4.046-5.497,3.082l-1.972-0.759l4.19-10.879
					l1.972,0.759c2.502,0.964,3.171,2.955,2.009,5.973L362.737,98.52z"/>
			</g>
			<g>
				<g>
					<g>
						<g>
							<path style="fill:#DD6512;" d="M291.962,102.333l-6.169-1.806l15.983-54.597l6.169,1.806
								c15.077,4.414,23.72,20.214,19.307,35.29C322.839,98.103,307.039,106.747,291.962,102.333z"/>
						</g>
						<g>
							<defs>
								<path id="SVGID_00000108997404518502600530000002109374140554968725_" d="M291.962,102.333l-6.169-1.806l15.983-54.597
									l6.169,1.806c15.077,4.414,23.72,20.214,19.307,35.29C322.839,98.103,307.039,106.747,291.962,102.333z"/>
							</defs>
							<clipPath id="SVGID_00000014597823955539570840000008656397558986990734_">
								<use xlink:href="#SVGID_00000108997404518502600530000002109374140554968725_"  style="overflow:visible;"/>
							</clipPath>
							<g style="clip-path:url(#SVGID_00000014597823955539570840000008656397558986990734_);">
								
									<line style="fill:none;stroke:#FEAC01;stroke-width:0.75;stroke-miterlimit:10;" x1="286.327" y1="98.707" x2="331.718" y2="111.995"/>
								
									<line style="fill:none;stroke:#FEAC01;stroke-width:0.75;stroke-miterlimit:10;" x1="287.116" y1="96.012" x2="332.507" y2="109.3"/>
								
									<line style="fill:none;stroke:#FEAC01;stroke-width:0.75;stroke-miterlimit:10;" x1="287.905" y1="93.317" x2="333.296" y2="106.606"/>
								
									<line style="fill:none;stroke:#FEAC01;stroke-width:0.75;stroke-miterlimit:10;" x1="288.693" y1="90.622" x2="334.085" y2="103.911"/>
								
									<line style="fill:none;stroke:#FEAC01;stroke-width:0.75;stroke-miterlimit:10;" x1="289.482" y1="87.928" x2="334.874" y2="101.216"/>
								
									<line style="fill:none;stroke:#FEAC01;stroke-width:0.75;stroke-miterlimit:10;" x1="290.271" y1="85.233" x2="335.663" y2="98.521"/>
								
									<line style="fill:none;stroke:#FEAC01;stroke-width:0.75;stroke-miterlimit:10;" x1="291.06" y1="82.538" x2="336.452" y2="95.827"/>
								
									<line style="fill:none;stroke:#FEAC01;stroke-width:0.75;stroke-miterlimit:10;" x1="291.849" y1="79.843" x2="337.24" y2="93.132"/>
								
									<line style="fill:none;stroke:#FEAC01;stroke-width:0.75;stroke-miterlimit:10;" x1="292.638" y1="77.149" x2="338.029" y2="90.437"/>
								
									<line style="fill:none;stroke:#FEAC01;stroke-width:0.75;stroke-miterlimit:10;" x1="293.427" y1="74.454" x2="338.818" y2="87.742"/>
								
									<line style="fill:none;stroke:#FEAC01;stroke-width:0.75;stroke-miterlimit:10;" x1="294.216" y1="71.759" x2="339.607" y2="85.048"/>
								
									<line style="fill:none;stroke:#FEAC01;stroke-width:0.75;stroke-miterlimit:10;" x1="295.005" y1="69.064" x2="340.396" y2="82.353"/>
								
									<line style="fill:none;stroke:#FEAC01;stroke-width:0.75;stroke-miterlimit:10;" x1="295.793" y1="66.37" x2="341.185" y2="79.658"/>
								
									<line style="fill:none;stroke:#FEAC01;stroke-width:0.75;stroke-miterlimit:10;" x1="296.582" y1="63.675" x2="341.974" y2="76.963"/>
								
									<line style="fill:none;stroke:#FEAC01;stroke-width:0.75;stroke-miterlimit:10;" x1="297.371" y1="60.98" x2="342.763" y2="74.269"/>
								
									<line style="fill:none;stroke:#FEAC01;stroke-width:0.75;stroke-miterlimit:10;" x1="298.16" y1="58.285" x2="343.552" y2="71.574"/>
								
									<line style="fill:none;stroke:#FEAC01;stroke-width:0.75;stroke-miterlimit:10;" x1="298.949" y1="55.591" x2="344.34" y2="68.879"/>
								
									<line style="fill:none;stroke:#FEAC01;stroke-width:0.75;stroke-miterlimit:10;" x1="299.738" y1="52.896" x2="345.129" y2="66.184"/>
								
									<line style="fill:none;stroke:#FEAC01;stroke-width:0.75;stroke-miterlimit:10;" x1="300.527" y1="50.201" x2="345.918" y2="63.49"/>
								
									<line style="fill:none;stroke:#FEAC01;stroke-width:0.75;stroke-miterlimit:10;" x1="301.316" y1="47.506" x2="346.707" y2="60.795"/>
							</g>
						</g>
						<g>
							<circle style="fill:#FEC701;" cx="293.785" cy="73.229" r="28.444"/>
						</g>
						<g>
							<circle style="fill:#DD6512;" cx="293.785" cy="73.229" r="24.449"/>
						</g>
						<g>
							<circle style="fill:#FEA901;" cx="293.785" cy="73.229" r="22.017"/>
						</g>
					</g>
				</g>
				<path style="fill:#DD6512;" d="M297.604,62.674l-2.138-0.626l-6.137-1.797l-3.092-0.905l-1.51,5.157l3.092,0.905l-3.276,11.189
					l-3.092-0.905l-1.51,5.157l3.092,0.905l6.137,1.797l2.138,0.626c6.683,1.956,11.074-0.649,13.173-7.816
					C306.58,69.193,304.287,64.631,297.604,62.674z M297.931,75.46c-0.909,3.105-2.65,4.28-5.223,3.527l-2.028-0.594l3.275-11.189
					l2.028,0.594c2.573,0.753,3.405,2.682,2.496,5.787L297.931,75.46z"/>
			</g>
			<g>
				<g>
					<g>
						<g>
							<path style="fill:#DD6512;" d="M350.161,119.949l-5.935,2.468L322.38,69.891l5.935-2.468
								c14.505-6.033,31.154,0.835,37.186,15.34C371.534,97.267,364.666,113.916,350.161,119.949z"/>
						</g>
						<g>
							<defs>
								<path id="SVGID_00000119111226959804983430000015500953721768331437_" d="M350.161,119.949l-5.935,2.468L322.38,69.891
									l5.935-2.468c14.505-6.033,31.154,0.835,37.186,15.34C371.534,97.267,364.666,113.916,350.161,119.949z"/>
							</defs>
							<clipPath id="SVGID_00000137820201220795047560000018251138684331631249_">
								<use xlink:href="#SVGID_00000119111226959804983430000015500953721768331437_"  style="overflow:visible;"/>
							</clipPath>
							<g style="clip-path:url(#SVGID_00000137820201220795047560000018251138684331631249_);">
								
									<line style="fill:none;stroke:#FEAC01;stroke-width:0.75;stroke-miterlimit:10;" x1="343.498" y1="120.666" x2="387.168" y2="102.503"/>
								
									<line style="fill:none;stroke:#FEAC01;stroke-width:0.75;stroke-miterlimit:10;" x1="342.42" y1="118.073" x2="386.09" y2="99.91"/>
								
									<line style="fill:none;stroke:#FEAC01;stroke-width:0.75;stroke-miterlimit:10;" x1="341.342" y1="115.481" x2="385.012" y2="97.318"/>
								
									<line style="fill:none;stroke:#FEAC01;stroke-width:0.75;stroke-miterlimit:10;" x1="340.263" y1="112.888" x2="383.933" y2="94.725"/>
								
									<line style="fill:none;stroke:#FEAC01;stroke-width:0.75;stroke-miterlimit:10;" x1="339.185" y1="110.296" x2="382.855" y2="92.133"/>
								
									<line style="fill:none;stroke:#FEAC01;stroke-width:0.75;stroke-miterlimit:10;" x1="338.107" y1="107.703" x2="381.777" y2="89.54"/>
								
									<line style="fill:none;stroke:#FEAC01;stroke-width:0.75;stroke-miterlimit:10;" x1="337.028" y1="105.11" x2="380.698" y2="86.948"/>
								
									<line style="fill:none;stroke:#FEAC01;stroke-width:0.75;stroke-miterlimit:10;" x1="335.95" y1="102.518" x2="379.62" y2="84.355"/>
								
									<line style="fill:none;stroke:#FEAC01;stroke-width:0.75;stroke-miterlimit:10;" x1="334.872" y1="99.925" x2="378.542" y2="81.762"/>
								
									<line style="fill:none;stroke:#FEAC01;stroke-width:0.75;stroke-miterlimit:10;" x1="333.794" y1="97.333" x2="377.464" y2="79.17"/>
								
									<line style="fill:none;stroke:#FEAC01;stroke-width:0.75;stroke-miterlimit:10;" x1="332.715" y1="94.74" x2="376.385" y2="76.577"/>
								
									<line style="fill:none;stroke:#FEAC01;stroke-width:0.75;stroke-miterlimit:10;" x1="331.637" y1="92.148" x2="375.307" y2="73.985"/>
								
									<line style="fill:none;stroke:#FEAC01;stroke-width:0.75;stroke-miterlimit:10;" x1="330.559" y1="89.555" x2="374.229" y2="71.392"/>
								
									<line style="fill:none;stroke:#FEAC01;stroke-width:0.75;stroke-miterlimit:10;" x1="329.48" y1="86.963" x2="373.151" y2="68.8"/>
								
									<line style="fill:none;stroke:#FEAC01;stroke-width:0.75;stroke-miterlimit:10;" x1="328.402" y1="84.37" x2="372.072" y2="66.207"/>
								
									<line style="fill:none;stroke:#FEAC01;stroke-width:0.75;stroke-miterlimit:10;" x1="327.324" y1="81.777" x2="370.994" y2="63.615"/>
								
									<line style="fill:none;stroke:#FEAC01;stroke-width:0.75;stroke-miterlimit:10;" x1="326.246" y1="79.185" x2="369.916" y2="61.022"/>
								
									<line style="fill:none;stroke:#FEAC01;stroke-width:0.75;stroke-miterlimit:10;" x1="325.167" y1="76.592" x2="368.837" y2="58.429"/>
								
									<line style="fill:none;stroke:#FEAC01;stroke-width:0.75;stroke-miterlimit:10;" x1="324.089" y1="74" x2="367.759" y2="55.837"/>
								
									<line style="fill:none;stroke:#FEAC01;stroke-width:0.75;stroke-miterlimit:10;" x1="323.011" y1="71.407" x2="366.681" y2="53.244"/>
							</g>
						</g>
						<g>
							<circle style="fill:#FEC701;" cx="333.303" cy="96.154" r="28.444"/>
						</g>
						<g>
							<circle style="fill:#DD6512;" cx="333.303" cy="96.154" r="24.449"/>
						</g>
						<g>
							<circle style="fill:#FEC701;" cx="333.303" cy="96.154" r="22.017"/>
						</g>
					</g>
				</g>
				<path style="fill:#DD6512;" d="M329.647,85.542l-2.057,0.856l-5.904,2.456l-2.975,1.237l2.063,4.961l2.975-1.237l4.477,10.764
					l-2.975,1.237l2.063,4.961l2.975-1.237l5.904-2.456l2.057-0.856c6.43-2.674,8.211-7.459,5.343-14.355
					C340.726,84.978,336.077,82.868,329.647,85.542z M337.931,95.287c1.242,2.987,0.625,4.995-1.85,6.025l-1.951,0.811
					l-4.477-10.764l1.951-0.811c2.475-1.029,4.335-0.051,5.577,2.936L337.931,95.287z"/>
			</g>
			<g>
				<g>
					<g>
						<g>
							<path style="fill:#DD6512;" d="M273.986,134.577h6.428V77.689h-6.428c-15.709,0-28.444,12.735-28.444,28.444
								C245.542,121.842,258.277,134.577,273.986,134.577z"/>
						</g>
						<g>
							<defs>
								<path id="SVGID_00000019667366125743620410000008349344149563696556_" d="M273.986,134.577h6.428V77.689h-6.428
									c-15.709,0-28.444,12.735-28.444,28.444C245.542,121.842,258.277,134.577,273.986,134.577z"/>
							</defs>
							<clipPath id="SVGID_00000106127331591383344380000005667035710529877380_">
								<use xlink:href="#SVGID_00000019667366125743620410000008349344149563696556_"  style="overflow:visible;"/>
							</clipPath>
							<g style="clip-path:url(#SVGID_00000106127331591383344380000005667035710529877380_);">
								
									<line style="fill:none;stroke:#FEAC01;stroke-width:0.75;stroke-miterlimit:10;" x1="280.414" y1="132.68" x2="233.117" y2="132.68"/>
								
									<line style="fill:none;stroke:#FEAC01;stroke-width:0.75;stroke-miterlimit:10;" x1="280.414" y1="129.872" x2="233.117" y2="129.872"/>
								
									<line style="fill:none;stroke:#FEAC01;stroke-width:0.75;stroke-miterlimit:10;" x1="280.414" y1="127.065" x2="233.117" y2="127.065"/>
								
									<line style="fill:none;stroke:#FEAC01;stroke-width:0.75;stroke-miterlimit:10;" x1="280.414" y1="124.257" x2="233.117" y2="124.257"/>
								
									<line style="fill:none;stroke:#FEAC01;stroke-width:0.75;stroke-miterlimit:10;" x1="280.414" y1="121.449" x2="233.117" y2="121.449"/>
								
									<line style="fill:none;stroke:#FEAC01;stroke-width:0.75;stroke-miterlimit:10;" x1="280.414" y1="118.641" x2="233.117" y2="118.641"/>
								
									<line style="fill:none;stroke:#FEAC01;stroke-width:0.75;stroke-miterlimit:10;" x1="280.414" y1="115.833" x2="233.117" y2="115.833"/>
								
									<line style="fill:none;stroke:#FEAC01;stroke-width:0.75;stroke-miterlimit:10;" x1="280.414" y1="113.025" x2="233.117" y2="113.025"/>
								
									<line style="fill:none;stroke:#FEAC01;stroke-width:0.75;stroke-miterlimit:10;" x1="280.414" y1="110.217" x2="233.117" y2="110.217"/>
								
									<line style="fill:none;stroke:#FEAC01;stroke-width:0.75;stroke-miterlimit:10;" x1="280.414" y1="107.41" x2="233.117" y2="107.41"/>
								
									<line style="fill:none;stroke:#FEAC01;stroke-width:0.75;stroke-miterlimit:10;" x1="280.414" y1="104.602" x2="233.117" y2="104.602"/>
								
									<line style="fill:none;stroke:#FEAC01;stroke-width:0.75;stroke-miterlimit:10;" x1="280.414" y1="101.794" x2="233.117" y2="101.794"/>
								
									<line style="fill:none;stroke:#FEAC01;stroke-width:0.75;stroke-miterlimit:10;" x1="280.414" y1="98.986" x2="233.117" y2="98.986"/>
								
									<line style="fill:none;stroke:#FEAC01;stroke-width:0.75;stroke-miterlimit:10;" x1="280.414" y1="96.178" x2="233.117" y2="96.178"/>
								
									<line style="fill:none;stroke:#FEAC01;stroke-width:0.75;stroke-miterlimit:10;" x1="280.414" y1="93.37" x2="233.117" y2="93.37"/>
								
									<line style="fill:none;stroke:#FEAC01;stroke-width:0.75;stroke-miterlimit:10;" x1="280.414" y1="90.562" x2="233.117" y2="90.562"/>
								
									<line style="fill:none;stroke:#FEAC01;stroke-width:0.75;stroke-miterlimit:10;" x1="280.414" y1="87.755" x2="233.117" y2="87.755"/>
								
									<line style="fill:none;stroke:#FEAC01;stroke-width:0.75;stroke-miterlimit:10;" x1="280.414" y1="84.947" x2="233.117" y2="84.947"/>
								
									<line style="fill:none;stroke:#FEAC01;stroke-width:0.75;stroke-miterlimit:10;" x1="280.414" y1="82.139" x2="233.117" y2="82.139"/>
								
									<line style="fill:none;stroke:#FEAC01;stroke-width:0.75;stroke-miterlimit:10;" x1="280.414" y1="79.331" x2="233.117" y2="79.331"/>
							</g>
						</g>
						<g>
							<path style="fill:#FEC701;" d="M251.97,106.133c0-15.709,12.735-28.444,28.444-28.444s28.444,12.735,28.444,28.444
								s-12.735,28.444-28.444,28.444S251.97,121.842,251.97,106.133z"/>
						</g>
						<g>
							<circle style="fill:#DD6512;" cx="280.414" cy="106.133" r="24.449"/>
						</g>
						<g>
							<path style="fill:#FEC701;" d="M258.397,106.133c0-12.159,9.857-22.017,22.017-22.017c12.159,0,22.017,9.857,22.017,22.017
								s-9.857,22.017-22.017,22.017C268.254,128.15,258.397,118.292,258.397,106.133z"/>
						</g>
					</g>
				</g>
				<path style="fill:#DD6512;" d="M282.773,94.931h-2.228h-6.395h-3.222v5.373h3.222v11.658h-3.222v5.373h3.222h6.395h2.228
					c6.963,0,10.446-3.734,10.446-11.202C293.219,98.665,289.736,94.931,282.773,94.931z M286.679,107.11
					c0,3.235-1.341,4.852-4.022,4.852h-2.113v-11.658h2.113c2.681,0,4.022,1.618,4.022,4.852V107.11z"/>
			</g>
			<g>
				<g>
					<path style="fill:#29355E;" d="M385.8,209.157H240.348c-2.922,0-5.291-2.369-5.291-5.291v-96.591
						c0-2.922,2.369-5.291,5.291-5.291H385.8c2.922,0,5.291,2.369,5.291,5.291v96.591
						C391.091,206.789,388.722,209.157,385.8,209.157z"/>
					<path style="fill:#2C52A8;" d="M398.05,209.157H252.597c-2.922,0-5.291-2.369-5.291-5.291v-96.591
						c0-2.922,2.369-5.291,5.291-5.291H398.05c2.922,0,5.291,2.369,5.291,5.291v96.591
						C403.34,206.789,400.972,209.157,398.05,209.157z"/>
					<path style="fill:#1B448C;" d="M375.686,181.699c-1.977-1.507-4.8-1.126-6.307,0.852l-23.068,30.271h-70.484l18.911-24.816
						c1.507-1.977,1.125-4.8-0.852-6.307c-1.976-1.507-4.8-1.126-6.307,0.852l-23.705,31.108h93.114l19.548-25.652
						C378.044,186.029,377.662,183.205,375.686,181.699z"/>
					<g>
						<path style="fill:none;stroke:#FFF4E4;stroke-miterlimit:10;stroke-dasharray:5.0453,5.0453;" d="M258.676,204.142
							c-3.247,0-5.888-2.641-5.888-5.888v-85.365c0-3.247,2.641-5.889,5.888-5.889h133.295c3.247,0,5.889,2.641,5.889,5.889v85.365
							c0,3.247-2.641,5.888-5.889,5.888H258.676z"/>
					</g>
				</g>
			</g>
			<g>
				<polygon style="fill:#FEC701;" points="257.72,60.263 256.217,66.337 250.144,67.839 256.217,69.342 257.72,75.416 
					259.223,69.342 265.296,67.839 259.223,66.337 				"/>
				<polygon style="fill:#FEC701;" points="251.982,54.486 251.278,57.331 248.433,58.035 251.278,58.739 251.982,61.584 
					252.685,58.739 255.53,58.035 252.685,57.331 				"/>
				<polygon style="fill:#FEC701;" points="260.461,48.773 259.432,52.934 255.271,53.963 259.432,54.992 260.461,59.153 
					261.49,54.992 265.651,53.963 261.49,52.934 				"/>
			</g>
		</g>
		<g>
			<g>
				<path style="fill:#77B633;" d="M348.414,179.63l-7.915,4.456l5.828-6.572c-4.355-3.929-10.104-6.341-16.432-6.341
					c-3.002,0-5.866,0.565-8.526,1.551l1.071,3.383l-2.492-2.819c-2.84,1.26-5.399,3.034-7.55,5.217l6.052,5.581l-8.093-3.199
					c-3.143,4.128-5.031,9.264-5.031,14.852h49.134C354.462,189.569,352.171,183.945,348.414,179.63z"/>
				<path style="fill:#90C947;" d="M319.192,186.428l4.575,2.576l-3.369-3.799c2.517-2.271,5.84-3.665,9.497-3.665
					c1.735,0,3.391,0.327,4.928,0.896l-0.619,1.956l1.44-1.63c1.641,0.728,3.121,1.753,4.364,3.015l-3.498,3.226l4.678-1.849
					c1.817,2.386,2.908,5.354,2.908,8.584h-28.399C315.696,192.173,317.02,188.922,319.192,186.428z"/>
			</g>
			<g>
				<path style="fill:#90C947;" d="M409.982,172.776l-11.282,6.352l8.307-9.368c-6.208-5.6-14.403-9.039-23.422-9.039
					c-4.28,0-8.362,0.806-12.152,2.211l1.527,4.823l-3.551-4.019c-4.048,1.796-7.696,4.324-10.762,7.437l8.627,7.956l-11.536-4.559
					c-4.48,5.884-7.171,13.204-7.171,21.171h70.037C418.604,186.944,415.337,178.927,409.982,172.776z"/>
				<path style="fill:#77B633;" d="M368.328,182.467l6.521,3.671l-4.802-5.415c3.588-3.237,8.325-5.225,13.538-5.225
					c2.474,0,4.833,0.466,7.024,1.278l-0.883,2.788l2.053-2.323c2.34,1.038,4.448,2.499,6.22,4.298l-4.986,4.598l6.668-2.635
					c2.59,3.401,4.145,7.632,4.145,12.236h-40.481C363.345,190.656,365.233,186.022,368.328,182.467z"/>
			</g>
		</g>
		<ellipse style="fill:#C1D3EA;" cx="250" cy="449.814" rx="212.868" ry="16.991"/>
		<g>
			<path style="fill:#90C947;" d="M215.763,413.251c0,0-11.258-3.212-13.138,8.613c0,0-6.227-1.181-6.521,4.558
				c0,0-11.901-4.976-16.29,8.074c0,0-9.781-4.189-12.438,5.009c0,0-15.348-4.715-19.864,8.041h68.252v-34.693"/>
			<path style="fill:#77B633;" d="M215.763,425.31c0,0-7.299-2.083-8.518,5.584c0,0-4.038-0.766-4.228,2.955
				c0,0-7.716-3.226-10.562,5.235c0,0-6.342-2.716-8.065,3.248c0,0-9.951-3.057-12.879,5.214h44.252v-22.494"/>
		</g>
		<g>
			<g>
				<rect x="215.763" y="411.573" style="fill:#FEC701;" width="208.169" height="35.972"/>
				<rect x="215.763" y="416.168" style="fill:#DD6512;" width="208.169" height="31.378"/>
				<g>
					<line style="fill:none;stroke:#FEC701;stroke-miterlimit:10;" x1="226.404" y1="413.121" x2="226.404" y2="447.546"/>
					<line style="fill:none;stroke:#FEC701;stroke-miterlimit:10;" x1="239.753" y1="413.121" x2="239.753" y2="447.546"/>
					<line style="fill:none;stroke:#FEC701;stroke-miterlimit:10;" x1="253.102" y1="413.121" x2="253.102" y2="447.546"/>
					<line style="fill:none;stroke:#FEC701;stroke-miterlimit:10;" x1="266.451" y1="413.121" x2="266.451" y2="447.546"/>
					<line style="fill:none;stroke:#FEC701;stroke-miterlimit:10;" x1="279.8" y1="413.121" x2="279.8" y2="447.546"/>
					<line style="fill:none;stroke:#FEC701;stroke-miterlimit:10;" x1="293.149" y1="413.121" x2="293.149" y2="447.546"/>
					<line style="fill:none;stroke:#FEC701;stroke-miterlimit:10;" x1="306.498" y1="413.121" x2="306.498" y2="447.546"/>
					<line style="fill:none;stroke:#FEC701;stroke-miterlimit:10;" x1="319.847" y1="413.121" x2="319.847" y2="447.546"/>
					<line style="fill:none;stroke:#FEC701;stroke-miterlimit:10;" x1="333.196" y1="413.121" x2="333.196" y2="447.546"/>
					<line style="fill:none;stroke:#FEC701;stroke-miterlimit:10;" x1="346.545" y1="413.121" x2="346.545" y2="447.546"/>
					<line style="fill:none;stroke:#FEC701;stroke-miterlimit:10;" x1="359.895" y1="413.121" x2="359.895" y2="447.546"/>
					<line style="fill:none;stroke:#FEC701;stroke-miterlimit:10;" x1="373.244" y1="413.121" x2="373.244" y2="447.546"/>
					<line style="fill:none;stroke:#FEC701;stroke-miterlimit:10;" x1="386.593" y1="413.121" x2="386.593" y2="447.546"/>
					<line style="fill:none;stroke:#FEC701;stroke-miterlimit:10;" x1="399.942" y1="413.121" x2="399.942" y2="447.546"/>
					<line style="fill:none;stroke:#FEC701;stroke-miterlimit:10;" x1="413.291" y1="413.121" x2="413.291" y2="447.546"/>
				</g>
			</g>
			<g>
				<rect x="215.763" y="375.601" style="fill:#FEC701;" width="208.169" height="35.972"/>
				<rect x="215.763" y="380.196" style="fill:#DD6512;" width="208.169" height="31.378"/>
				<g>
					<line style="fill:none;stroke:#FEC701;stroke-miterlimit:10;" x1="226.404" y1="377.149" x2="226.404" y2="411.573"/>
					<line style="fill:none;stroke:#FEC701;stroke-miterlimit:10;" x1="239.753" y1="377.149" x2="239.753" y2="411.573"/>
					<line style="fill:none;stroke:#FEC701;stroke-miterlimit:10;" x1="253.102" y1="377.149" x2="253.102" y2="411.573"/>
					<line style="fill:none;stroke:#FEC701;stroke-miterlimit:10;" x1="266.451" y1="377.149" x2="266.451" y2="411.573"/>
					<line style="fill:none;stroke:#FEC701;stroke-miterlimit:10;" x1="279.8" y1="377.149" x2="279.8" y2="411.573"/>
					<line style="fill:none;stroke:#FEC701;stroke-miterlimit:10;" x1="293.149" y1="377.149" x2="293.149" y2="411.573"/>
					<line style="fill:none;stroke:#FEC701;stroke-miterlimit:10;" x1="306.498" y1="377.149" x2="306.498" y2="411.573"/>
					<line style="fill:none;stroke:#FEC701;stroke-miterlimit:10;" x1="319.847" y1="377.149" x2="319.847" y2="411.573"/>
					<line style="fill:none;stroke:#FEC701;stroke-miterlimit:10;" x1="333.196" y1="377.149" x2="333.196" y2="411.573"/>
					<line style="fill:none;stroke:#FEC701;stroke-miterlimit:10;" x1="346.545" y1="377.149" x2="346.545" y2="411.573"/>
					<line style="fill:none;stroke:#FEC701;stroke-miterlimit:10;" x1="359.895" y1="377.149" x2="359.895" y2="411.573"/>
					<line style="fill:none;stroke:#FEC701;stroke-miterlimit:10;" x1="373.244" y1="377.149" x2="373.244" y2="411.573"/>
					<line style="fill:none;stroke:#FEC701;stroke-miterlimit:10;" x1="386.593" y1="377.149" x2="386.593" y2="411.573"/>
					<line style="fill:none;stroke:#FEC701;stroke-miterlimit:10;" x1="399.942" y1="377.149" x2="399.942" y2="411.573"/>
					<line style="fill:none;stroke:#FEC701;stroke-miterlimit:10;" x1="413.291" y1="377.149" x2="413.291" y2="411.573"/>
				</g>
			</g>
			<g>
				<rect x="215.763" y="339.629" style="fill:#FEC701;" width="208.169" height="35.972"/>
				<rect x="215.763" y="344.224" style="fill:#DD6512;" width="208.169" height="31.378"/>
				<g>
					<line style="fill:none;stroke:#FEC701;stroke-miterlimit:10;" x1="226.404" y1="341.176" x2="226.404" y2="375.601"/>
					<line style="fill:none;stroke:#FEC701;stroke-miterlimit:10;" x1="239.753" y1="341.176" x2="239.753" y2="375.601"/>
					<line style="fill:none;stroke:#FEC701;stroke-miterlimit:10;" x1="253.102" y1="341.176" x2="253.102" y2="375.601"/>
					<line style="fill:none;stroke:#FEC701;stroke-miterlimit:10;" x1="266.451" y1="341.176" x2="266.451" y2="375.601"/>
					<line style="fill:none;stroke:#FEC701;stroke-miterlimit:10;" x1="279.8" y1="341.176" x2="279.8" y2="375.601"/>
					<line style="fill:none;stroke:#FEC701;stroke-miterlimit:10;" x1="293.149" y1="341.176" x2="293.149" y2="375.601"/>
					<line style="fill:none;stroke:#FEC701;stroke-miterlimit:10;" x1="306.498" y1="341.176" x2="306.498" y2="375.601"/>
					<line style="fill:none;stroke:#FEC701;stroke-miterlimit:10;" x1="319.847" y1="341.176" x2="319.847" y2="375.601"/>
					<line style="fill:none;stroke:#FEC701;stroke-miterlimit:10;" x1="333.196" y1="341.176" x2="333.196" y2="375.601"/>
					<line style="fill:none;stroke:#FEC701;stroke-miterlimit:10;" x1="346.545" y1="341.176" x2="346.545" y2="375.601"/>
					<line style="fill:none;stroke:#FEC701;stroke-miterlimit:10;" x1="359.895" y1="341.176" x2="359.895" y2="375.601"/>
					<line style="fill:none;stroke:#FEC701;stroke-miterlimit:10;" x1="373.244" y1="341.176" x2="373.244" y2="375.601"/>
					<line style="fill:none;stroke:#FEC701;stroke-miterlimit:10;" x1="386.593" y1="341.176" x2="386.593" y2="375.601"/>
					<line style="fill:none;stroke:#FEC701;stroke-miterlimit:10;" x1="399.942" y1="341.176" x2="399.942" y2="375.601"/>
					<line style="fill:none;stroke:#FEC701;stroke-miterlimit:10;" x1="413.291" y1="341.176" x2="413.291" y2="375.601"/>
				</g>
			</g>
			<g>
				<rect x="215.763" y="303.656" style="fill:#FEC701;" width="208.169" height="35.972"/>
				<rect x="215.763" y="308.251" style="fill:#DD6512;" width="208.169" height="31.378"/>
				<g>
					<line style="fill:none;stroke:#FEC701;stroke-miterlimit:10;" x1="226.404" y1="305.204" x2="226.404" y2="339.629"/>
					<line style="fill:none;stroke:#FEC701;stroke-miterlimit:10;" x1="239.753" y1="305.204" x2="239.753" y2="339.629"/>
					<line style="fill:none;stroke:#FEC701;stroke-miterlimit:10;" x1="253.102" y1="305.204" x2="253.102" y2="339.629"/>
					<line style="fill:none;stroke:#FEC701;stroke-miterlimit:10;" x1="266.451" y1="305.204" x2="266.451" y2="339.629"/>
					<line style="fill:none;stroke:#FEC701;stroke-miterlimit:10;" x1="279.8" y1="305.204" x2="279.8" y2="339.629"/>
					<line style="fill:none;stroke:#FEC701;stroke-miterlimit:10;" x1="293.149" y1="305.204" x2="293.149" y2="339.629"/>
					<line style="fill:none;stroke:#FEC701;stroke-miterlimit:10;" x1="306.498" y1="305.204" x2="306.498" y2="339.629"/>
					<line style="fill:none;stroke:#FEC701;stroke-miterlimit:10;" x1="319.847" y1="305.204" x2="319.847" y2="339.629"/>
					<line style="fill:none;stroke:#FEC701;stroke-miterlimit:10;" x1="333.196" y1="305.204" x2="333.196" y2="339.629"/>
					<line style="fill:none;stroke:#FEC701;stroke-miterlimit:10;" x1="346.545" y1="305.204" x2="346.545" y2="339.629"/>
					<line style="fill:none;stroke:#FEC701;stroke-miterlimit:10;" x1="359.895" y1="305.204" x2="359.895" y2="339.629"/>
					<line style="fill:none;stroke:#FEC701;stroke-miterlimit:10;" x1="373.244" y1="305.204" x2="373.244" y2="339.629"/>
					<line style="fill:none;stroke:#FEC701;stroke-miterlimit:10;" x1="386.593" y1="305.204" x2="386.593" y2="339.629"/>
					<line style="fill:none;stroke:#FEC701;stroke-miterlimit:10;" x1="399.942" y1="305.204" x2="399.942" y2="339.629"/>
					<line style="fill:none;stroke:#FEC701;stroke-miterlimit:10;" x1="413.291" y1="305.204" x2="413.291" y2="339.629"/>
				</g>
			</g>
			<g>
				<rect x="215.763" y="267.684" style="fill:#FEC701;" width="208.169" height="35.972"/>
				<rect x="215.763" y="272.279" style="fill:#DD6512;" width="208.169" height="31.378"/>
				<g>
					<line style="fill:none;stroke:#FEC701;stroke-miterlimit:10;" x1="226.404" y1="269.232" x2="226.404" y2="303.656"/>
					<line style="fill:none;stroke:#FEC701;stroke-miterlimit:10;" x1="239.753" y1="269.232" x2="239.753" y2="303.656"/>
					<line style="fill:none;stroke:#FEC701;stroke-miterlimit:10;" x1="253.102" y1="269.232" x2="253.102" y2="303.656"/>
					<line style="fill:none;stroke:#FEC701;stroke-miterlimit:10;" x1="266.451" y1="269.232" x2="266.451" y2="303.656"/>
					<line style="fill:none;stroke:#FEC701;stroke-miterlimit:10;" x1="279.8" y1="269.232" x2="279.8" y2="303.656"/>
					<line style="fill:none;stroke:#FEC701;stroke-miterlimit:10;" x1="293.149" y1="269.232" x2="293.149" y2="303.656"/>
					<line style="fill:none;stroke:#FEC701;stroke-miterlimit:10;" x1="306.498" y1="269.232" x2="306.498" y2="303.656"/>
					<line style="fill:none;stroke:#FEC701;stroke-miterlimit:10;" x1="319.847" y1="269.232" x2="319.847" y2="303.656"/>
					<line style="fill:none;stroke:#FEC701;stroke-miterlimit:10;" x1="333.196" y1="269.232" x2="333.196" y2="303.656"/>
					<line style="fill:none;stroke:#FEC701;stroke-miterlimit:10;" x1="346.545" y1="269.232" x2="346.545" y2="303.656"/>
					<line style="fill:none;stroke:#FEC701;stroke-miterlimit:10;" x1="359.895" y1="269.232" x2="359.895" y2="303.656"/>
					<line style="fill:none;stroke:#FEC701;stroke-miterlimit:10;" x1="373.244" y1="269.232" x2="373.244" y2="303.656"/>
					<line style="fill:none;stroke:#FEC701;stroke-miterlimit:10;" x1="386.593" y1="269.232" x2="386.593" y2="303.656"/>
					<line style="fill:none;stroke:#FEC701;stroke-miterlimit:10;" x1="399.942" y1="269.232" x2="399.942" y2="303.656"/>
					<line style="fill:none;stroke:#FEC701;stroke-miterlimit:10;" x1="413.291" y1="269.232" x2="413.291" y2="303.656"/>
				</g>
			</g>
			<g>
				<rect x="215.763" y="231.712" style="fill:#FEC701;" width="208.169" height="35.972"/>
				<rect x="215.763" y="236.307" style="fill:#DD6512;" width="208.169" height="31.378"/>
				<g>
					<line style="fill:none;stroke:#FEC701;stroke-miterlimit:10;" x1="226.404" y1="233.259" x2="226.404" y2="267.684"/>
					<line style="fill:none;stroke:#FEC701;stroke-miterlimit:10;" x1="239.753" y1="233.259" x2="239.753" y2="267.684"/>
					<line style="fill:none;stroke:#FEC701;stroke-miterlimit:10;" x1="253.102" y1="233.259" x2="253.102" y2="267.684"/>
					<line style="fill:none;stroke:#FEC701;stroke-miterlimit:10;" x1="266.451" y1="233.259" x2="266.451" y2="267.684"/>
					<line style="fill:none;stroke:#FEC701;stroke-miterlimit:10;" x1="279.8" y1="233.259" x2="279.8" y2="267.684"/>
					<line style="fill:none;stroke:#FEC701;stroke-miterlimit:10;" x1="293.149" y1="233.259" x2="293.149" y2="267.684"/>
					<line style="fill:none;stroke:#FEC701;stroke-miterlimit:10;" x1="306.498" y1="233.259" x2="306.498" y2="267.684"/>
					<line style="fill:none;stroke:#FEC701;stroke-miterlimit:10;" x1="319.847" y1="233.259" x2="319.847" y2="267.684"/>
					<line style="fill:none;stroke:#FEC701;stroke-miterlimit:10;" x1="333.196" y1="233.259" x2="333.196" y2="267.684"/>
					<line style="fill:none;stroke:#FEC701;stroke-miterlimit:10;" x1="346.545" y1="233.259" x2="346.545" y2="267.684"/>
					<line style="fill:none;stroke:#FEC701;stroke-miterlimit:10;" x1="359.895" y1="233.259" x2="359.895" y2="267.684"/>
					<line style="fill:none;stroke:#FEC701;stroke-miterlimit:10;" x1="373.244" y1="233.259" x2="373.244" y2="267.684"/>
					<line style="fill:none;stroke:#FEC701;stroke-miterlimit:10;" x1="386.593" y1="233.259" x2="386.593" y2="267.684"/>
					<line style="fill:none;stroke:#FEC701;stroke-miterlimit:10;" x1="399.942" y1="233.259" x2="399.942" y2="267.684"/>
					<line style="fill:none;stroke:#FEC701;stroke-miterlimit:10;" x1="413.291" y1="233.259" x2="413.291" y2="267.684"/>
				</g>
			</g>
			<g>
				<rect x="215.763" y="195.739" style="fill:#FEC701;" width="208.169" height="35.972"/>
				<rect x="215.763" y="200.334" style="fill:#DD6512;" width="208.169" height="31.378"/>
				<g>
					<line style="fill:none;stroke:#FEC701;stroke-miterlimit:10;" x1="226.404" y1="197.287" x2="226.404" y2="231.712"/>
					<line style="fill:none;stroke:#FEC701;stroke-miterlimit:10;" x1="239.753" y1="197.287" x2="239.753" y2="231.712"/>
					<line style="fill:none;stroke:#FEC701;stroke-miterlimit:10;" x1="253.102" y1="197.287" x2="253.102" y2="231.712"/>
					<line style="fill:none;stroke:#FEC701;stroke-miterlimit:10;" x1="266.451" y1="197.287" x2="266.451" y2="231.712"/>
					<line style="fill:none;stroke:#FEC701;stroke-miterlimit:10;" x1="279.8" y1="197.287" x2="279.8" y2="231.712"/>
					<line style="fill:none;stroke:#FEC701;stroke-miterlimit:10;" x1="293.149" y1="197.287" x2="293.149" y2="231.712"/>
					<line style="fill:none;stroke:#FEC701;stroke-miterlimit:10;" x1="306.498" y1="197.287" x2="306.498" y2="231.712"/>
					<line style="fill:none;stroke:#FEC701;stroke-miterlimit:10;" x1="319.847" y1="197.287" x2="319.847" y2="231.712"/>
					<line style="fill:none;stroke:#FEC701;stroke-miterlimit:10;" x1="333.196" y1="197.287" x2="333.196" y2="231.712"/>
					<line style="fill:none;stroke:#FEC701;stroke-miterlimit:10;" x1="346.545" y1="197.287" x2="346.545" y2="231.712"/>
					<line style="fill:none;stroke:#FEC701;stroke-miterlimit:10;" x1="359.895" y1="197.287" x2="359.895" y2="231.712"/>
					<line style="fill:none;stroke:#FEC701;stroke-miterlimit:10;" x1="373.244" y1="197.287" x2="373.244" y2="231.712"/>
					<line style="fill:none;stroke:#FEC701;stroke-miterlimit:10;" x1="386.593" y1="197.287" x2="386.593" y2="231.712"/>
					<line style="fill:none;stroke:#FEC701;stroke-miterlimit:10;" x1="399.942" y1="197.287" x2="399.942" y2="231.712"/>
					<line style="fill:none;stroke:#FEC701;stroke-miterlimit:10;" x1="413.291" y1="197.287" x2="413.291" y2="231.712"/>
				</g>
			</g>
			<g>
				<polygon style="fill:#FEC701;" points="439.439,194.607 441.638,203.496 450.527,205.695 441.638,207.895 439.439,216.784 
					437.24,207.895 428.351,205.695 437.24,203.496 				"/>
				<polygon style="fill:#FEC701;" points="447.838,186.152 448.868,190.316 453.032,191.346 448.868,192.376 447.838,196.541 
					446.807,192.376 442.643,191.346 446.807,190.316 				"/>
				<polygon style="fill:#FEC701;" points="435.427,177.791 436.934,183.88 443.023,185.386 436.934,186.893 435.427,192.981 
					433.921,186.893 427.832,185.386 433.921,183.88 				"/>
			</g>
		</g>
		<path style="opacity:0.39;fill:#AD4904;" d="M382.117,195.739h-11.315l-9.588,12.582h-70.484l9.588-12.582h-11.315l-73.24,96.112
			v11.804v3.044l0.73-0.958h70.484l-26.831,35.21h-44.383v3.271v5.729h37.525l-26.832,35.211h-10.693v9h3.835l-3.835,5.032v12.378
			v2.471L382.117,195.739z M283.873,217.321h70.484l-26.831,35.21h-70.484L283.873,217.321z M223.352,296.742l26.832-35.211h70.484
			l-26.832,35.211H223.352z"/>
		<g>
			
				<line style="fill:none;stroke:#29355E;stroke-width:9;stroke-linecap:round;stroke-miterlimit:10;" x1="288.847" y1="180.777" x2="85.241" y2="447.967"/>
			
				<line style="fill:none;stroke:#29355E;stroke-width:9;stroke-linecap:round;stroke-miterlimit:10;" x1="370.646" y1="180.777" x2="167.04" y2="447.967"/>
			
				<line style="fill:none;stroke:#29355E;stroke-width:9;stroke-linecap:round;stroke-miterlimit:10;" x1="264.429" y1="212.821" x2="346.227" y2="212.821"/>
			
				<line style="fill:none;stroke:#29355E;stroke-width:9;stroke-linecap:round;stroke-miterlimit:10;" x1="230.739" y1="257.032" x2="312.538" y2="257.032"/>
			
				<line style="fill:none;stroke:#29355E;stroke-width:9;stroke-linecap:round;stroke-miterlimit:10;" x1="197.05" y1="301.242" x2="278.848" y2="301.242"/>
			
				<line style="fill:none;stroke:#29355E;stroke-width:9;stroke-linecap:round;stroke-miterlimit:10;" x1="163.36" y1="345.452" x2="245.159" y2="345.452"/>
			
				<line style="fill:none;stroke:#29355E;stroke-width:9;stroke-linecap:round;stroke-miterlimit:10;" x1="129.671" y1="389.663" x2="211.469" y2="389.663"/>
		</g>
		<g>
			<g>
				<g>
					<g>
						<path style="fill:#FCA388;" d="M48.001,154.986c0,0,2.773-8.254,3.661-10.758c1.022-2.882,1.382-4.35,2.216-4.199
							c1.159,0.21,0.333,3.891,0.473,4.176c0,0,1.444-5.779,2.852-5.144c1.129,0.509-0.437,5.39-0.437,5.39s2.319-5.093,3.512-5.462
							c1.46-0.451,0.984,1.411-1.326,6.129c0,0,2.861-3.95,4.079-3.867c1.416,0.097-0.513,3.343-2.634,6.196l-1.457,1.968
							c0,0,1.258-0.497,2.713,0.008c1.454,0.505,0.128,2.639-4.952,3.753l-2.598,4.289L48.001,154.986z"/>
						<path style="fill:none;stroke:#EF6159;stroke-linecap:round;stroke-miterlimit:10;" d="M58.941,149.414
							c0,0-2.614-1.068-4.504,1.734"/>
						<polygon style="fill:#F9796E;" points="55.348,155.412 48.001,154.986 54.105,157.464 						"/>
					</g>
					<path style="fill:none;stroke:#EF6159;stroke-linecap:round;stroke-miterlimit:10;" d="M52.84,146.825
						c0,0,1.381,0.635,1.461,1.672"/>
				</g>
				<path style="fill:#29355E;" d="M57.44,158.9l-12.349-6.145c-6.357,12.533-23.45,55.004,27.426,70.402l1.457-24.509
					C73.974,198.648,43.758,196.832,57.44,158.9z"/>
				
					<line style="fill:none;stroke:#FFFFFF;stroke-linecap:round;stroke-miterlimit:10;" x1="45.159" y1="156.442" x2="54.437" y2="160.863"/>
			</g>
			<g>
				<g>
					<g>
						<path style="fill:#FCA388;" d="M127.862,143.632c0,0-4.589-7.4-6.027-9.635c-1.654-2.571-2.341-3.918-3.118-3.58
							c-1.08,0.469,0.566,3.864,0.495,4.173c0,0-2.729-5.295-3.954-4.355c-0.983,0.754,1.659,5.147,1.659,5.147
							s-3.424-4.427-4.669-4.513c-1.524-0.105-0.635,1.599,2.694,5.663c0,0-3.69-3.19-4.856-2.83
							c-1.356,0.418,1.264,3.137,3.982,5.428l1.869,1.582c0,0-1.339-0.195-2.639,0.629c-1.3,0.825,0.48,2.598,5.679,2.519
							l3.511,3.58L127.862,143.632z"/>
						<path style="fill:none;stroke:#EF6159;stroke-linecap:round;stroke-miterlimit:10;" d="M115.937,140.713
							c0,0,2.3-1.638,4.782,0.656"/>
						<polygon style="fill:#F9796E;" points="120.808,145.729 127.862,143.632 122.488,147.442 						"/>
					</g>
					<path style="fill:none;stroke:#EF6159;stroke-linecap:round;stroke-miterlimit:10;" d="M121.284,136.796
						c0,0-1.199,0.935-1.039,1.962"/>
				</g>
				<path style="fill:#29355E;" d="M119.569,149.603l10.614-8.809c9.058,10.744,35.42,48.174-10.58,74.811l-7.663-22.625
					C111.941,192.98,141.573,183.395,119.569,149.603z"/>
				
					<line style="fill:none;stroke:#FFFFFF;stroke-linecap:round;stroke-miterlimit:10;" x1="130.962" y1="144.398" x2="122.943" y2="150.827"/>
			</g>
			<g>
				<g>
					<g>
						<g>
							<g>
								<g>
									<g>
										<path style="fill:#DD6512;" d="M121.769,120.46v-8.656H45.159v8.656c0,21.155,17.15,38.305,38.305,38.305
											C104.619,158.766,121.769,141.616,121.769,120.46z"/>
									</g>
									<g>
										<defs>
											<path id="SVGID_00000179620899243807157440000009287834351317549993_" d="M121.769,120.46v-8.656H45.159v8.656
												c0,21.155,17.15,38.305,38.305,38.305C104.619,158.766,121.769,141.616,121.769,120.46z"/>
										</defs>
										<clipPath id="SVGID_00000129191519745539290150000007595827947270814085_">
											<use xlink:href="#SVGID_00000179620899243807157440000009287834351317549993_"  style="overflow:visible;"/>
										</clipPath>
										<g style="clip-path:url(#SVGID_00000129191519745539290150000007595827947270814085_);">
											
												<line style="fill:none;stroke:#FEAC01;stroke-width:0.75;stroke-miterlimit:10;" x1="119.215" y1="111.804" x2="119.215" y2="175.498"/>
											
												<line style="fill:none;stroke:#FEAC01;stroke-width:0.75;stroke-miterlimit:10;" x1="115.434" y1="111.804" x2="115.434" y2="175.498"/>
											
												<line style="fill:none;stroke:#FEAC01;stroke-width:0.75;stroke-miterlimit:10;" x1="111.652" y1="111.804" x2="111.652" y2="175.498"/>
											
												<line style="fill:none;stroke:#FEAC01;stroke-width:0.75;stroke-miterlimit:10;" x1="107.871" y1="111.804" x2="107.871" y2="175.498"/>
											
												<line style="fill:none;stroke:#FEAC01;stroke-width:0.75;stroke-miterlimit:10;" x1="104.09" y1="111.804" x2="104.09" y2="175.498"/>
											
												<line style="fill:none;stroke:#FEAC01;stroke-width:0.75;stroke-miterlimit:10;" x1="100.308" y1="111.804" x2="100.308" y2="175.498"/>
											
												<line style="fill:none;stroke:#FEAC01;stroke-width:0.75;stroke-miterlimit:10;" x1="96.527" y1="111.804" x2="96.527" y2="175.498"/>
											
												<line style="fill:none;stroke:#FEAC01;stroke-width:0.75;stroke-miterlimit:10;" x1="92.746" y1="111.804" x2="92.746" y2="175.498"/>
											
												<line style="fill:none;stroke:#FEAC01;stroke-width:0.75;stroke-miterlimit:10;" x1="88.964" y1="111.804" x2="88.964" y2="175.498"/>
											
												<line style="fill:none;stroke:#FEAC01;stroke-width:0.75;stroke-miterlimit:10;" x1="85.183" y1="111.804" x2="85.183" y2="175.498"/>
											
												<line style="fill:none;stroke:#FEAC01;stroke-width:0.75;stroke-miterlimit:10;" x1="81.402" y1="111.804" x2="81.402" y2="175.498"/>
											
												<line style="fill:none;stroke:#FEAC01;stroke-width:0.75;stroke-miterlimit:10;" x1="77.621" y1="111.804" x2="77.621" y2="175.498"/>
											
												<line style="fill:none;stroke:#FEAC01;stroke-width:0.75;stroke-miterlimit:10;" x1="73.839" y1="111.804" x2="73.839" y2="175.498"/>
											
												<line style="fill:none;stroke:#FEAC01;stroke-width:0.75;stroke-miterlimit:10;" x1="70.058" y1="111.804" x2="70.058" y2="175.498"/>
											
												<line style="fill:none;stroke:#FEAC01;stroke-width:0.75;stroke-miterlimit:10;" x1="66.277" y1="111.804" x2="66.277" y2="175.498"/>
											
												<line style="fill:none;stroke:#FEAC01;stroke-width:0.75;stroke-miterlimit:10;" x1="62.495" y1="111.804" x2="62.495" y2="175.498"/>
											
												<line style="fill:none;stroke:#FEAC01;stroke-width:0.75;stroke-miterlimit:10;" x1="58.714" y1="111.804" x2="58.714" y2="175.498"/>
											
												<line style="fill:none;stroke:#FEAC01;stroke-width:0.75;stroke-miterlimit:10;" x1="54.933" y1="111.804" x2="54.933" y2="175.498"/>
											
												<line style="fill:none;stroke:#FEAC01;stroke-width:0.75;stroke-miterlimit:10;" x1="51.151" y1="111.804" x2="51.151" y2="175.498"/>
											
												<line style="fill:none;stroke:#FEAC01;stroke-width:0.75;stroke-miterlimit:10;" x1="47.37" y1="111.804" x2="47.37" y2="175.498"/>
										</g>
									</g>
									<g>
										<circle style="fill:#FEC701;" cx="83.464" cy="111.804" r="38.305"/>
									</g>
									<g>
										<circle style="fill:#DD6512;" cx="83.464" cy="111.804" r="32.925"/>
									</g>
									<g>
										<circle style="fill:#FEC701;" cx="83.464" cy="111.804" r="29.649"/>
									</g>
									<path style="fill:#FFA725;" d="M64.613,116.826c1.187,5.621,5.459,8.815,5.459,8.815c-1.782,3.873-5.076,6.588-6.833,7.835
										c2.428,2.267,5.235,4.129,8.318,5.483l5.324-2.586c0,0,3.269-7.027,5.284-11.918c2.016-4.891,1.09-2.954-2.07-11.997
										S63.426,111.205,64.613,116.826z"/>
									<path style="fill:#FFA725;" d="M111.941,120.055c-4.314-7.204-11.853-17.348-11.853-17.348
										c-1.17-10.319-6.894-13.367-6.894-13.367s-0.555,10.652-0.823,10.983c-0.268,0.332-6.65,3.132-10.587-2.773
										c-3.937-5.905-9.683-7.67-9.683-7.67l6.337,32.819l4.578,13.287l4.346,5.206
										C99.129,139.644,108.716,131.204,111.941,120.055z"/>
								</g>
							</g>
							<g>
								<defs>
									<circle id="SVGID_00000140694620372655502040000013199478087601416342_" cx="83.464" cy="111.804" r="29.649"/>
								</defs>
								<clipPath id="SVGID_00000072960199844503128570000017152150734674231221_">
									<use xlink:href="#SVGID_00000140694620372655502040000013199478087601416342_"  style="overflow:visible;"/>
								</clipPath>
								<g style="clip-path:url(#SVGID_00000072960199844503128570000017152150734674231221_);">
									<path style="fill:#FFA725;" d="M72.658,122.899c0,0,2.287,10.372,0.312,18.555c-1.975,8.183,18.857,7.334,20.502,7.334
										c1.645,0,13.08-1.629,13.08-1.629s8.881-5.255,8.881-5.969s-4.975-25.71-18.682-36.959S72.658,122.899,72.658,122.899z"/>
									<path style="fill:#FFA725;" d="M96.193,114.041c-0.191,1.311-2.147,3.106-2.147,3.106s-2.958,0.66-6.07,1.267
										c-0.497,0.176-0.884,0.262-1.098,0.211c0,0,0,0-0.001,0c-2.286,0.43-4.478,0.788-5.459,0.788
										c-1.389,0-5.349,1.592-8.551,2.987c-0.137,0.318-0.209,0.5-0.209,0.5s0.684,3.108,0.98,7.262
										C97.101,129.957,96.193,114.041,96.193,114.041z"/>
									<path style="fill:#FFF4E4;" d="M94.046,117.147c0,0-10.155,2.266-12.628,2.266c-1.39,0-5.349,1.592-8.551,2.987
										c-0.137,0.318-0.209,0.5-0.209,0.5s0.483,9.079-5.909,16.924c-5.317,6.526,25.079,8.965,26.724,8.965
										c0.721,0,3.324-0.313,6.02-0.665c-4.371-18-12.956-28.696-12.956-28.696C86.346,120.738,94.046,117.147,94.046,117.147z"/>
									<path style="fill:#FFF4E4;" d="M94.046,117.147c0,0-10.155,2.266-12.628,2.266c-1.39,0-5.349,1.592-8.551,2.987
										c-0.137,0.318-0.209,0.5-0.209,0.5s0.483,9.079-5.909,16.924c-5.317,6.526,25.079,8.965,26.724,8.965
										c0.721,0,3.324-0.313,6.02-0.665c-4.371-18-12.956-28.696-12.956-28.696C86.346,120.738,94.046,117.147,94.046,117.147z"/>
									<path style="fill:#F2DBB3;" d="M71.684,130.137c9.423,0.253,15.24-1.878,18.812-4.675c-1.82-3.151-3.269-5.132-3.768-5.788
										c1.135,0.353,7.318-2.527,7.318-2.527s-0.011,0.002-0.031,0.007c-0.012,0.003-0.033,0.007-0.053,0.012
										c-0.013,0.003-0.021,0.005-0.037,0.008c-0.011,0.002-0.022,0.005-0.034,0.007c-0.035,0.008-0.074,0.016-0.12,0.027
										c-0.014,0.003-0.029,0.006-0.044,0.01c-0.25,0.055-0.639,0.14-1.129,0.245c-0.008,0.002-0.016,0.003-0.025,0.005
										c-1.153,0.248-2.847,0.605-4.594,0.946c-0.001,0-0.002,0-0.003,0.001c-0.497,0.176-0.884,0.262-1.098,0.211
										c0,0,0,0-0.001,0c-0.557,0.105-1.106,0.205-1.636,0.297c-0.029,0.005-0.057,0.01-0.085,0.015
										c-0.505,0.087-0.988,0.166-1.438,0.234c-0.032,0.005-0.065,0.01-0.097,0.015c-0.214,0.032-0.42,0.061-0.616,0.087
										c-0.03,0.004-0.057,0.007-0.086,0.011c-0.175,0.023-0.341,0.043-0.498,0.06c-0.026,0.003-0.053,0.006-0.078,0.009
										c-0.165,0.017-0.317,0.03-0.458,0.041c-0.03,0.002-0.059,0.004-0.088,0.006c-0.139,0.009-0.269,0.015-0.38,0.015
										c-1.389,0-5.349,1.592-8.551,2.987c-0.137,0.318-0.209,0.5-0.209,0.5S72.82,125.998,71.684,130.137z"/>
									<path style="fill:#FFA725;" d="M78.323,96.61c0.004-0.005,0.007-0.008,0.007-0.008s-2.732-4.626-6.228-6.723
										c0,0-2.792,2.314-1.917,9.882c0,0.004-0.001,0.007-0.001,0.011C72.646,98.177,75.42,97.107,78.323,96.61z"/>
									<g>
										
											<path style="fill:none;stroke:#4D3216;stroke-width:2;stroke-linecap:round;stroke-linejoin:round;stroke-miterlimit:10;" d="
											M31.228,114.495c0,0-0.143,1.807-1.189,2.084c-0.921,0.244-1.423-0.428-1.423-1.013"/>
										
											<path style="fill:none;stroke:#4D3216;stroke-width:2;stroke-linecap:round;stroke-linejoin:round;stroke-miterlimit:10;" d="
											M31.212,114.724c0,0-0.302,1.445,0.308,2.099c0.61,0.654,1.713,0.33,1.979-0.349"/>
									</g>
									<path style="fill:#4D3216;" d="M31.142,114.979c-0.806-0.313-2.604-2.742-0.889-3.242c0.864-0.252,2.277-0.115,3.294,0.462
										C35.696,113.419,32.146,115.37,31.142,114.979z"/>
									<path style="fill:none;stroke:#4D3216;stroke-width:2;stroke-linecap:round;stroke-miterlimit:10;" d="M25.198,108.796
										c0-0.708,0.574-1.282,1.282-1.282c0.708,0,1.282,0.574,1.282,1.282"/>
									<path style="fill:none;stroke:#4D3216;stroke-width:2;stroke-linecap:round;stroke-miterlimit:10;" d="M37.039,110.432
										c0.327-0.628,1.101-0.872,1.729-0.545c0.628,0.327,0.872,1.101,0.545,1.729"/>
									<path style="fill:#FFF4E4;" d="M32.013,107.475c-0.845,0.175-2.615-3.462-1.073-4.195
										C32.78,102.406,32.858,107.3,32.013,107.475z"/>
									<path style="fill:#FFF4E4;" d="M34.467,107.759c0.619,0.601,4.065-1.516,3.158-2.962
										C36.542,103.071,33.848,107.157,34.467,107.759z"/>
									<path style="fill:#FFA725;" d="M68.352,105.901c0,0-2.582,5.738-2.543,9.364c0.026,2.375,3.201,9.493,12.305,10.182
										c9.104,0.689,19.977-4.424,17.817-14.289c0,0,3.096-12.961-2.736-21.818c0,0-4.601,0.54-9.068,6.821
										C84.127,96.16,69.033,92.558,68.352,105.901z"/>
									<g>
										<path style="fill:#29355E;" d="M75.213,106.021c0.319-0.536,0.913-0.812,1.527-0.843c0.308-0.009,0.626,0.053,0.9,0.2
											c0.283,0.128,0.498,0.376,0.637,0.643c-0.617-0.069-1.04-0.12-1.513-0.094C76.294,105.935,75.823,106.002,75.213,106.021z
											"/>
									</g>
									<g>
										<path style="fill:#29355E;" d="M72.101,106.021c-0.61-0.019-1.081-0.086-1.551-0.094
											c-0.473-0.025-0.896,0.025-1.513,0.094c0.138-0.267,0.354-0.515,0.637-0.643c0.274-0.147,0.592-0.209,0.9-0.2
											C71.188,105.209,71.783,105.485,72.101,106.021z"/>
									</g>
									<path style="fill:#FFF4E4;" d="M79.718,125.506c0.458,0.001,0.918-0.014,1.378-0.042c0.076-0.004,0.153-0.009,0.229-0.014
										c0.457-0.032,0.914-0.076,1.37-0.135c0.07-0.009,0.141-0.019,0.211-0.029c0.468-0.065,0.934-0.141,1.396-0.234
										c0.038-0.008,0.076-0.017,0.114-0.025c0.979-0.203,1.939-0.469,2.863-0.798c0.03-0.011,0.06-0.02,0.089-0.031
										c0.452-0.163,0.894-0.343,1.325-0.536c0.037-0.016,0.074-0.033,0.11-0.049c0.432-0.196,0.852-0.407,1.259-0.633
										c0.024-0.013,0.048-0.027,0.072-0.041c1.707-0.96,3.173-2.182,4.236-3.656c0.006-0.008,0.011-0.015,0.017-0.023
										c0.265-0.369,0.505-0.754,0.717-1.155c0,0,0,0,0,0c0.641-1.214,1.028-2.57,1.088-4.064l0,0
										c-4.542,5.705-8.528-2.181-14.791-0.062c-6.266,2.12-6.397-1.633-8.572-1.319c-1.638,0.236-1.45,1.024-4.474,1.296
										c-1.12,0.101-1.879-0.142-2.393-0.488c-0.099,0.629-0.16,1.239-0.154,1.797c0.026,2.375,3.201,9.493,12.305,10.182
										c0.473,0.036,0.951,0.052,1.431,0.057C79.603,125.504,79.66,125.506,79.718,125.506z"/>
									<path style="fill:#DD6512;" d="M88.158,98.403c0,0,3.759,2.179,6.428,4.304c0,0,0.218-6.101-1.961-10.133
										C92.625,92.574,89.683,93.609,88.158,98.403z"/>
									<path style="fill:#29355E;" d="M72.261,115.012c-0.845-0.184-2.999-2.303-1.383-3.064c0.815-0.383,2.231-0.468,3.326-0.056
										C76.517,112.762,73.314,115.241,72.261,115.012z"/>
									<path style="fill:none;stroke:#29355E;stroke-linecap:round;stroke-linejoin:round;stroke-miterlimit:10;" d="
										M72.414,114.292v2.687c0,0-1.416,1.38-2.252-0.508"/>
									<path style="fill:none;stroke:#29355E;stroke-linecap:round;stroke-linejoin:round;stroke-miterlimit:10;" d="
										M72.414,116.979c0,0,0.763,0.799,1.78,0.763c1.017-0.036,1.852-1.562,1.852-1.562"/>
									<path style="fill:#29355E;" d="M71.466,108.785c0,0.678-0.55,0-1.227,0c-0.678,0-1.227,0.678-1.227,0
										c0-0.678,0.55-1.227,1.227-1.227C70.916,107.557,71.466,108.107,71.466,108.785z"/>
									<path style="fill:#29355E;" d="M77.939,108.785c0,0.678-0.55,0-1.227,0c-0.678,0-1.227,0.678-1.227,0
										c0-0.678,0.55-1.227,1.227-1.227C77.39,107.557,77.939,108.107,77.939,108.785z"/>
								</g>
							</g>
						</g>
					</g>
				</g>
				<polygon style="fill:#FCA388;" points="167.342,358.924 166.507,375.927 178.013,377.118 181.29,361.259 				"/>
				<path style="fill:#29355E;" d="M166.747,371.037l12.05,2.285c0,0,17.763,5.735,17.713,12.294l-31.695-3.244L166.747,371.037z"/>
				<polygon style="fill:#2C52A8;" points="164.815,382.373 164.188,385.667 196.711,388.643 196.51,385.617 				"/>
				<polygon style="fill:#29355E;" points="73.974,198.648 69.061,281.292 132.71,281.531 119.326,191.878 				"/>
				<path style="fill:none;stroke:#FFFFFF;stroke-linecap:round;stroke-miterlimit:10;" d="M87.428,199.531
					c0,0,2.601,6.422,10.087,5.325c7.485-1.097,7.502-8.234,7.502-8.234"/>
				
					<line style="fill:none;stroke:#FFFFFF;stroke-linecap:round;stroke-miterlimit:10;" x1="72.943" y1="275.311" x2="127.332" y2="267.302"/>
				<g>
					<path style="fill:#2C52A8;" d="M111.466,327.363l50.058-27.211l1.794,61.853l20.56,1.743c0,0,28.561-72.29,3.703-97.469
						S86.411,293.502,86.411,293.502L111.466,327.363z"/>
				</g>
				<path style="fill:#1B448C;" d="M95.164,305.332l16.302,22.031l44.618-24.254c-11.572-19.234-26.865-24.252-26.865-24.252
					l-33.714,25.755L95.164,305.332z"/>
				<path style="fill:#032D60;" d="M97.281,286.577l-6.815,12.406l21,28.38l10.808-5.875c5.774-24.275-3.678-46.677-3.694-46.715
					C110.336,278.902,102.912,283.163,97.281,286.577z"/>
				<g>
					<path style="fill:#2C52A8;" d="M154.188,330.393c3.978-16.822-12.292-43.827-32.127-57.013l-13.379,1.997l-39.622,5.915
						c-0.804,7.288,2.733,14.546,9.316,18.3l31.484,28.901"/>
				</g>
				<g>
					<polygon style="fill:#FCA388;" points="118.859,419.358 115.797,436.104 127.046,438.797 132.379,423.507 					"/>
					<path style="fill:#29355E;" d="M116.677,431.288l11.645,3.85c0,0,16.854,8.021,15.943,14.516l-30.994-7.382L116.677,431.288z"
						/>
					<polygon style="fill:#2C52A8;" points="113.272,442.271 112.217,445.455 144.067,452.68 144.266,449.654 					"/>
				</g>
				<path style="fill:#2C52A8;" d="M153.985,321.658l-44.125,6.836l4.716,93.508l21.918,3.59
					C136.494,425.592,160.571,342.699,153.985,321.658z"/>
				
					<line style="fill:none;stroke:#FFFFFF;stroke-linecap:round;stroke-miterlimit:10;" x1="118.085" y1="417.313" x2="134.585" y2="419.706"/>
				<path style="fill:#1B448C;" d="M69.061,281.292c-0.285,2.583-0.015,5.159,0.733,7.58l52.268-15.492l-13.379,1.997
					L69.061,281.292z"/>
				<g>
					<g>
						<g>
							<g>
								<g>
									<path style="fill:#FCA388;" d="M97.699,201.599L97.699,201.599c3.343-0.97,5.266-4.467,4.295-7.809l-4.71-16.226
										l-12.105,3.514l4.71,16.226C90.86,200.646,94.357,202.569,97.699,201.599z"/>
								</g>
								<g>
									<path style="fill:#F9796E;" d="M97.77,179.235l3.39,11.677c-9.677,0.92-14.012-7.538-14.012-7.538s6.67-3.194,8.972-3.862
										C96.543,179.389,97.117,179.3,97.77,179.235z"/>
								</g>
								<g>
									<path style="fill:#FCA388;" d="M99.657,160.863c0,0,5.964,14.891,4.962,21.132c-1.025,6.38-10.994,10.561-19.402-0.929
										c0,0-4.153,1.689-5.822-1.101s0.755-6.327,4.487-4.682c0,0,2.73-3.418,1.871-9.836
										C85.753,165.447,96.477,166.237,99.657,160.863z"/>
								</g>
							</g>
							<path style="fill:none;stroke:#EF6159;stroke-linecap:round;stroke-miterlimit:10;" d="M82.806,176.77
								c0,0-0.752-0.467-1.813,0.033c-1.061,0.5-0.817,2.47,0.446,2.953c1.264,0.483,2.024-0.437,2.024-0.437"/>
							<path style="fill:#29355E;" d="M85.753,165.447c0,0,4.939,3.242,12.167,1.363s7.401-8.269,0.249-10.504
								c-7.152-2.235-15.803,0.936-14.975,5.299c0,0-9.248,2.405-2.341,13.473c0,0,1.188-0.517,3.028,0.206
								C83.882,175.283,86.904,171.578,85.753,165.447z"/>
						</g>
					</g>
					<path style="fill:none;stroke:#EF6159;stroke-linecap:round;stroke-miterlimit:10;" d="M101.013,179.641
						c0,0-2.77,5.845-7.87,0.206"/>
					<g>
						<g>
							<path style="fill:none;stroke:#EF6159;stroke-linecap:round;stroke-miterlimit:10;" d="M96.663,172.864
								c-0.124,1.007,6.616,3.338,2.248,5.309"/>
						</g>
						<g>
							<g>
								<path style="fill:none;stroke:#29355E;stroke-linecap:round;stroke-miterlimit:10;" d="M100.953,169.397
									c0,0-1.878-0.625-3.033,1.124"/>
							</g>
							<g>
								
									<ellipse transform="matrix(0.9604 -0.2788 0.2788 0.9604 -44.0689 34.7428)" style="fill:#29355E;" cx="100.122" cy="172.318" rx="0.908" ry="1.231"/>
							</g>
						</g>
						<g>
							<g>
								<path style="fill:none;stroke:#29355E;stroke-linecap:round;stroke-miterlimit:10;" d="M90.468,172.44
									c0,0,1.251-1.533,3.163-0.675"/>
							</g>
							<g>
								
									<ellipse transform="matrix(0.9604 -0.2788 0.2788 0.9604 -44.9596 32.7685)" style="fill:#29355E;" cx="92.734" cy="174.463" rx="0.908" ry="1.231"/>
							</g>
						</g>
					</g>
				</g>
				
					<line style="fill:none;stroke:#FFFFFF;stroke-linecap:round;stroke-miterlimit:10;" x1="167.634" y1="356.422" x2="182.821" y2="358.48"/>
			</g>
			<path style="fill:#FCA388;" d="M58.548,149.556c0,0,1.651-0.639,3.106-0.133c1.454,0.505,0.128,2.639-4.952,3.753"/>
			<path style="fill:#FCA388;" d="M116.769,140.758c0,0-2.171-0.24-3.471,0.584c-1.3,0.825,0.48,2.598,5.679,2.519"/>
			<g>
				<polygon style="fill:#FEC701;" points="136.453,114.649 138.652,123.538 147.541,125.737 138.652,127.937 136.453,136.826 
					134.254,127.937 125.365,125.737 134.254,123.538 				"/>
				<polygon style="fill:#FEC701;" points="144.852,106.194 145.882,110.358 150.046,111.388 145.882,112.419 144.852,116.583 
					143.821,112.419 139.657,111.388 143.821,110.358 				"/>
				<polygon style="fill:#FEC701;" points="132.441,97.833 133.948,103.922 140.036,105.428 133.948,106.935 132.441,113.024 
					130.935,106.935 124.846,105.428 130.935,103.922 				"/>
			</g>
		</g>
		<g>
			<circle style="fill:#2C52A8;" cx="180.702" cy="211.582" r="22.077"/>
			<g>
				<rect x="169.263" y="212.675" style="fill:#FFFFFF;" width="5.416" height="9.044"/>
				<rect x="177.228" y="205.558" style="fill:#FFFFFF;" width="5.416" height="16.16"/>
				<rect x="185.193" y="199.456" style="fill:#FFFFFF;" width="5.416" height="22.263"/>
			</g>
		</g>
		<g>
			<g>
				<g>
					<path style="fill:none;stroke:#90C947;stroke-miterlimit:10;" d="M470.215,463.644c0,0,17.116-61.854-16.196-133.107"/>
					<path style="fill:#90C947;" d="M462.095,350.621c0,0-23.665-38.048-18.09-49.053
						C449.822,290.087,462.095,350.621,462.095,350.621z"/>
					<path style="fill:#90C947;" d="M467.102,366.036c0,0-33.517-29.738-31.304-41.875
						C438.106,311.499,467.102,366.036,467.102,366.036z"/>
					<path style="fill:#90C947;" d="M470.844,383.567c0,0-36.881-25.446-36.16-37.761
						C435.437,332.958,470.844,383.567,470.844,383.567z"/>
					<path style="fill:#90C947;" d="M473.722,400.06c0,0-38.202-23.417-38.147-35.753
						C435.633,351.437,473.722,400.06,473.722,400.06z"/>
					<path style="fill:#90C947;" d="M466.718,364.821c0,0-10.237-43.623-1.432-52.263
						C474.473,303.545,466.718,364.821,466.718,364.821z"/>
					<path style="fill:#90C947;" d="M470.831,383.426c0,0-2.753-44.723,7.38-51.759
						C488.783,324.327,470.831,383.426,470.831,383.426z"/>
					<path style="fill:#90C947;" d="M473.436,400.086c0,0,3.67-44.657,14.705-50.172
						C499.654,344.161,473.436,400.086,473.436,400.086z"/>
				</g>
				<g>
					<g>
						<path style="fill:#77B633;" d="M465.691,465.265c0,0-100.918-49.105-89.561-63.763
							C385.611,389.265,435.378,431.852,465.691,465.265z"/>
						<path style="fill:none;stroke:#FFFFFF;stroke-linecap:round;stroke-miterlimit:10;" d="M376.129,401.503
							c0,0,33.282,18.669,89.561,63.763"/>
					</g>
					<g>
						<path style="fill:#77B633;" d="M466.742,456.957c0,0-72.581-85.602-56.281-94.443
							C424.07,355.134,452.46,414.162,466.742,456.957z"/>
						<path style="fill:none;stroke:#FFFFFF;stroke-linecap:round;stroke-miterlimit:10;" d="M410.461,362.514
							c0,0,22.939,30.496,56.281,94.443"/>
					</g>
					<g>
						<path style="fill:#90C947;" d="M464.138,461.452c0,0-96.307-78.346-80.378-91.269
							C397.06,359.394,439.918,417.817,464.138,461.452z"/>
						<path style="fill:none;stroke:#FFFFFF;stroke-linecap:round;stroke-miterlimit:10;" d="M383.761,370.183
							c0,0,31.137,28.504,80.378,91.269"/>
					</g>
				</g>
			</g>
			<g>
				<g>
					<path style="fill:none;stroke:#90C947;stroke-miterlimit:10;" d="M33.962,448.833c0,0-17.497-50.53,6.442-111.538"/>
					<path style="fill:#90C947;" d="M34.748,354.422c0,0,17.67-32.888,12.453-41.744C41.759,303.439,34.748,354.422,34.748,354.422z
						"/>
					<path style="fill:#90C947;" d="M31.399,367.504c0,0,26.301-26.497,23.82-36.472C52.632,320.625,31.399,367.504,31.399,367.504z
						"/>
					<path style="fill:#90C947;" d="M29.213,382.28c0,0,29.325-23.106,28.075-33.308C55.984,338.328,29.213,382.28,29.213,382.28z"
						/>
					<path style="fill:#90C947;" d="M27.689,396.146c0,0,30.53-21.488,29.833-31.743C56.795,353.704,27.689,396.146,27.689,396.146z
						"/>
					<path style="fill:#90C947;" d="M31.654,366.474c0,0,6.21-36.814-1.568-43.534C21.971,315.93,31.654,366.474,31.654,366.474z"/>
					<path style="fill:#90C947;" d="M29.216,382.162c0,0-0.071-37.334-8.869-42.65C11.169,333.966,29.216,382.162,29.216,382.162z"
						/>
					<path style="fill:#90C947;" d="M27.929,396.152c0,0-5.408-36.94-14.876-40.943C3.176,351.033,27.929,396.152,27.929,396.152z"
						/>
				</g>
				<g>
					<g>
						<path style="fill:#77B633;" d="M30.532,458.708c0,0,81.325-46.159,71.108-57.748C93.11,391.284,53.975,429.323,30.532,458.708
							z"/>
						<path style="fill:none;stroke:#FFFFFF;stroke-linecap:round;stroke-miterlimit:10;" d="M101.64,400.96
							c0,0-26.689,17.281-71.108,57.748"/>
					</g>
					<g>
						<path style="fill:#77B633;" d="M29.219,451.854c0,0,55.835-75.012,41.815-81.503
							C59.329,364.933,38.837,415.515,29.219,451.854z"/>
						<path style="fill:none;stroke:#FFFFFF;stroke-linecap:round;stroke-miterlimit:10;" d="M71.034,370.352
							c0,0-17.465,26.569-41.815,81.503"/>
					</g>
					<g>
						<path style="fill:#90C947;" d="M31.621,455.455c0,0,75.948-70.23,62.02-80.135C82.013,367.05,49.458,417.892,31.621,455.455z"
							/>
						<path style="fill:none;stroke:#FFFFFF;stroke-linecap:round;stroke-miterlimit:10;" d="M93.641,375.319
							c0,0-24.387,25.345-62.02,80.135"/>
					</g>
				</g>
			</g>
			<g>
				<path style="fill:#90C947;" d="M0,400.639c0,0,32.617-9.306,38.064,24.953c0,0,18.043-3.423,18.894,13.205
					c0,0,34.479-14.417,47.197,23.393c0,0,28.339-12.135,36.037,14.512c0,0,44.466-13.66,57.552,23.298H0V399.486"/>
				<path style="fill:#77B633;" d="M0,435.578c0,0,21.148-6.034,24.679,16.178c0,0,11.698-2.219,12.25,8.562
					c0,0,22.355-9.348,30.601,15.167c0,0,18.374-7.868,23.365,9.409c0,0,28.83-8.856,37.315,15.105H0v-65.17"/>
			</g>
			<g>
				<path style="fill:#90C947;" d="M500,400.639c0,0-32.617-9.306-38.064,24.953c0,0-18.043-3.423-18.894,13.205
					c0,0-34.479-14.417-47.197,23.393c0,0-28.339-12.135-36.037,14.512c0,0-44.466-13.66-57.552,23.298H500V399.486"/>
				<path style="fill:#77B633;" d="M500,435.578c0,0-21.148-6.034-24.679,16.178c0,0-11.698-2.219-12.25,8.562
					c0,0-22.355-9.348-30.601,15.167c0,0-18.374-7.868-23.365,9.409c0,0-28.83-8.856-37.315,15.105H500v-65.17"/>
			</g>
		</g>
		<g>
			<circle style="fill:#2C52A8;" cx="180.702" cy="211.582" r="22.077"/>
			<g>
				<rect x="169.263" y="212.675" style="fill:#FFFFFF;" width="5.416" height="9.044"/>
				<rect x="177.228" y="205.558" style="fill:#FFFFFF;" width="5.416" height="16.16"/>
				<rect x="185.193" y="199.456" style="fill:#FFFFFF;" width="5.416" height="22.263"/>
			</g>
		</g>
		<g>
			<g>
				<polyline style="fill:none;stroke:#2C52A8;stroke-miterlimit:10;" points="179.936,192.702 179.936,93.826 125.624,93.826 				
					"/>
				<circle style="fill:#2C52A8;" cx="125.365" cy="93.826" r="1.912"/>
			</g>
		</g>
		<g>
			<circle style="fill:#2C52A8;" cx="39.961" cy="113.024" r="1.912"/>
			<polyline style="fill:none;stroke:#2C52A8;stroke-miterlimit:10;" points="186.993,61.584 22.66,61.584 22.66,113.024 
				40.277,113.024 			"/>
			<g>
				<g>
					<circle style="fill:#2C52A8;" cx="205.121" cy="61.584" r="22.077"/>
				</g>
				<path style="fill:#FFFFFF;" d="M205.121,48.926c0,0-2.682,5.376-11.745,5.609c0.318,4.688,2.089,16.314,11.745,21.513
					c9.655-5.199,11.427-16.826,11.745-21.513C207.802,54.302,205.121,48.926,205.121,48.926z"/>
				<g>
					<g>
						<g>
							<path style="fill:#2C52A8;" d="M208.574,61.878h-6.907v-3.059c0-0.904,0.402-1.788,1.146-2.302
								c2.776-1.917,5.76,0.041,5.76,2.684V61.878z M203.126,61.196h3.99v-2.325c0-0.439-0.196-0.869-0.545-1.135
								c-1.636-1.248-3.445-0.099-3.445,1.465V61.196z"/>
						</g>
					</g>
					<g>
						<path style="fill:#2C52A8;" d="M210.116,60.905h-9.991v6.516h9.991V60.905z M205.851,65.881h-1.462l0.258-2.153
							c-0.157-0.134-0.258-0.331-0.258-0.553c0-0.404,0.327-0.731,0.731-0.731s0.731,0.327,0.731,0.731
							c0,0.222-0.101,0.419-0.258,0.553L205.851,65.881z"/>
					</g>
				</g>
			</g>
		</g>
		<g>
			<polyline style="fill:none;stroke:#2C52A8;stroke-miterlimit:10;" points="373.244,60.263 455.036,60.263 455.036,120.409 			"/>
			<circle style="fill:#2C52A8;" cx="373.244" cy="60.263" r="1.912"/>
			<g>
				<g>
					<circle style="fill:#2C52A8;" cx="455.036" cy="123.622" r="22.077"/>
				</g>
			</g>
			<g>
				<path style="fill:#FFFFFF;" d="M447.461,114.719c0.082-0.07,0.164-0.14,0.248-0.207c0.225-0.182,0.457-0.356,0.696-0.521
					c0.053-0.037,0.106-0.074,0.16-0.11c0.273-0.182,0.554-0.353,0.842-0.512c0.03-0.017,0.06-0.034,0.091-0.051
					c0.153-0.083,0.314-0.152,0.472-0.228c-0.59,0.708-1.115,1.536-1.563,2.469c-0.431-0.175-0.849-0.362-1.24-0.572
					C447.264,114.898,447.36,114.805,447.461,114.719z"/>
				<path style="fill:#FFFFFF;" d="M460.666,113.369c0.288,0.159,0.569,0.33,0.842,0.512c0.054,0.036,0.107,0.073,0.16,0.11
					c0.239,0.165,0.47,0.339,0.696,0.521c0.084,0.068,0.166,0.137,0.248,0.207c0.101,0.086,0.197,0.179,0.296,0.269
					c-0.403,0.216-0.835,0.408-1.28,0.588c-0.468-0.96-1.017-1.812-1.631-2.537c0.194,0.091,0.391,0.178,0.579,0.279
					C460.605,113.334,460.635,113.352,460.666,113.369z"/>
				<path style="fill:#FFFFFF;" d="M463.344,122.872c-0.077-2.148-0.476-4.158-1.127-5.912c0.622-0.254,1.21-0.544,1.764-0.866
					c1.565,1.857,2.554,4.206,2.719,6.778H463.344z"/>
				<path style="fill:#FFFFFF;" d="M455.786,111.994c1.781,0.335,3.355,1.846,4.457,4.069c-1.384,0.408-2.9,0.647-4.457,0.707
					V111.994z"/>
				<path style="fill:#FFFFFF;" d="M454.286,116.77c-1.557-0.06-3.072-0.299-4.456-0.707c1.101-2.223,2.676-3.734,4.456-4.069
					V116.77z"/>
				<path style="fill:#FFFFFF;" d="M454.286,118.268v4.604h-6.059c0.074-1.982,0.435-3.828,1.016-5.421
					C450.802,117.928,452.506,118.206,454.286,118.268z"/>
				<path style="fill:#FFFFFF;" d="M455.786,122.872v-4.604c1.78-0.062,3.484-0.34,5.044-0.818c0.581,1.594,0.942,3.44,1.016,5.422
					H455.786z"/>
				<path style="fill:#FFFFFF;" d="M462.611,132.524c-0.082,0.07-0.164,0.14-0.248,0.207c-0.225,0.182-0.457,0.356-0.696,0.521
					c-0.053,0.037-0.106,0.074-0.16,0.11c-0.273,0.182-0.554,0.353-0.842,0.512c-0.03,0.017-0.06,0.034-0.091,0.051
					c-0.188,0.102-0.385,0.188-0.579,0.279c0.614-0.725,1.163-1.577,1.631-2.537c0.445,0.18,0.877,0.372,1.28,0.588
					C462.808,132.346,462.712,132.438,462.611,132.524z"/>
				<path style="fill:#FFFFFF;" d="M449.407,133.875c-0.288-0.159-0.569-0.33-0.842-0.512c-0.054-0.036-0.107-0.073-0.16-0.11
					c-0.239-0.165-0.47-0.339-0.696-0.521c-0.084-0.068-0.166-0.137-0.248-0.207c-0.101-0.086-0.197-0.179-0.296-0.269
					c0.391-0.209,0.809-0.396,1.24-0.572c0.448,0.932,0.973,1.761,1.563,2.469c-0.157-0.076-0.318-0.145-0.472-0.228
					C449.467,133.909,449.437,133.891,449.407,133.875z"/>
				<path style="fill:#FFFFFF;" d="M454.286,124.372v4.604c-1.78,0.062-3.484,0.34-5.043,0.818c-0.581-1.594-0.942-3.44-1.016-5.421
					H454.286z"/>
				<path style="fill:#FFFFFF;" d="M454.286,130.473v4.776c-1.78-0.335-3.355-1.846-4.456-4.069
					C451.214,130.772,452.729,130.533,454.286,130.473z"/>
				<path style="fill:#FFFFFF;" d="M455.786,130.473c1.557,0.06,3.073,0.299,4.457,0.707c-1.102,2.223-2.676,3.734-4.457,4.069
					V130.473z"/>
				<path style="fill:#FFFFFF;" d="M455.786,128.975v-4.604h6.06c-0.074,1.982-0.435,3.828-1.016,5.422
					C459.27,129.316,457.566,129.037,455.786,128.975z"/>
				<path style="fill:#FFFFFF;" d="M446.728,124.372c0.074,2.167,0.459,4.177,1.094,5.925c-0.61,0.251-1.187,0.537-1.732,0.853
					c-1.565-1.857-2.554-4.206-2.719-6.778H446.728z"/>
				<path style="fill:#FFFFFF;" d="M462.217,130.284c0.651-1.755,1.05-3.764,1.127-5.912h3.356
					c-0.164,2.572-1.153,4.921-2.719,6.778C463.427,130.828,462.839,130.538,462.217,130.284z"/>
				<path style="fill:#FFFFFF;" d="M447.823,116.947c-0.635,1.748-1.021,3.758-1.094,5.925h-3.356
					c0.164-2.572,1.153-4.921,2.719-6.778C446.635,116.41,447.212,116.696,447.823,116.947z"/>
			</g>
		</g>
	</g>
</g>
</svg>
